<!DOCTYPE svg PUBLIC "-//W3C//DTD SVG 1.1//EN" "http://www.w3.org/Graphics/SVG/1.1/DTD/svg11.dtd">
<!-- Uploaded to: SVG Repo, www.svgrepo.com, Transformed by: SVG Repo Mixer Tools -->
<svg width="256px" height="256px" viewBox="-2.4 -2.4 28.80 28.80" fill="none" xmlns="http://www.w3.org/2000/svg" stroke="#e20303" transform="matrix(-1, 0, 0, 1, 0, 0)rotate(0)">
<g id="SVGRepo_bgCarrier" stroke-width="0"/>
<g id="SVGRepo_tracerCarrier" stroke-linecap="round" stroke-linejoin="round"/>
<g id="SVGRepo_iconCarrier"> <path d="M7 2L16.5 2L21 6.5V19" stroke="#660000" stroke-width="2.4" stroke-linecap="round" stroke-linejoin="round"/> <path d="M3 20.5V6.5C3 5.67157 3.67157 5 4.5 5H14.2515C14.4106 5 14.5632 5.06321 14.6757 5.17574L17.8243 8.32426C17.9368 8.43679 18 8.5894 18 8.74853V20.5C18 21.3284 17.3284 22 16.5 22H4.5C3.67157 22 3 21.3284 3 20.5Z" stroke="#660000" stroke-width="2.4" stroke-linecap="round" stroke-linejoin="round"/> <path d="M14 8.4V5.35355C14 5.15829 14.1583 5 14.3536 5C14.4473 5 14.5372 5.03725 14.6036 5.10355L17.8964 8.39645C17.9628 8.46275 18 8.55268 18 8.64645C18 8.84171 17.8417 9 17.6464 9H14.6C14.2686 9 14 8.73137 14 8.4Z" fill="#660000" stroke="#660000" stroke-width="2.4" stroke-linecap="round" stroke-linejoin="round"/> </g>
</svg>