<svg width="48" height="48" viewBox="0 0 48 48" fill="none" xmlns="http://www.w3.org/2000/svg">
<rect width="48" height="48" rx="24" fill="#413C6D"/>
<path d="M29.587 10.6667H18.4137C13.5603 10.6667 10.667 13.5601 10.667 18.4134V29.5734C10.667 34.4401 13.5603 37.3334 18.4137 37.3334H29.5737C34.427 37.3334 37.3203 34.4401 37.3203 29.5867V18.4134C37.3337 13.5601 34.4403 10.6667 29.587 10.6667ZM15.0003 23.8534C15.0403 21.5067 15.9737 19.2934 17.627 17.6401C19.3337 15.9334 21.6003 15.0001 24.0003 15.0001C26.4003 15.0001 28.667 15.9334 30.3603 17.6401C30.4003 17.6801 30.4403 17.7334 30.4803 17.7867V16.6401C30.4803 16.0934 30.9337 15.6401 31.4803 15.6401C32.027 15.6401 32.4803 16.0934 32.4803 16.6401V20.1734C32.4803 20.7201 32.027 21.1734 31.4803 21.1734H27.947C27.4003 21.1734 26.947 20.7201 26.947 20.1734C26.947 19.6267 27.4003 19.1734 27.947 19.1734H29.0537C29.0137 19.1334 28.987 19.0934 28.947 19.0534C27.627 17.7334 25.867 17.0001 24.0003 17.0001C22.1337 17.0001 20.3737 17.7334 19.0537 19.0534C17.7603 20.3467 17.0403 22.0667 17.0137 23.8934C17.0003 24.4267 16.547 24.8667 16.0003 24.8667H15.987C15.4403 24.8667 15.0003 24.4001 15.0003 23.8534ZM30.3603 30.3601C28.667 32.0534 26.4003 33.0001 24.0003 33.0001C21.6003 33.0001 19.3337 32.0667 17.6403 30.3601C17.6003 30.3201 17.5603 30.2667 17.5203 30.2134V31.3467C17.5203 31.8934 17.067 32.3467 16.5203 32.3467C15.9737 32.3467 15.5203 31.8934 15.5203 31.3467V27.8134C15.5203 27.2667 15.9737 26.8134 16.5203 26.8134H20.0537C20.6003 26.8134 21.0537 27.2667 21.0537 27.8134C21.0537 28.3601 20.6003 28.8134 20.0537 28.8134H18.947C18.987 28.8534 19.0137 28.8934 19.0537 28.9334C20.3737 30.2534 22.1337 30.9867 24.0003 30.9867C25.867 30.9867 27.627 30.2534 28.947 28.9334C30.2537 27.6267 30.987 25.8801 30.987 24.0134C30.987 23.4667 31.4403 23.0134 31.987 23.0134C32.5337 23.0134 32.987 23.4667 32.987 24.0134C32.987 26.4267 32.0537 28.6801 30.3603 30.3601Z" fill="white"/>
</svg>
