<svg width="21" height="20" viewBox="0 0 21 20" fill="none" xmlns="http://www.w3.org/2000/svg">
<path d="M10.5 20C16.0228 20 20.5 15.5228 20.5 10C20.5 4.47715 16.0228 0 10.5 0C4.97715 0 0.5 4.47715 0.5 10C0.5 15.5228 4.97715 20 10.5 20Z" fill="url(#paint0_linear_577_930)"/>
<path fill-rule="evenodd" clip-rule="evenodd" d="M5.0173 9.89096C7.93008 8.6137 9.87712 7.78815 10.8584 7.38317C13.631 6.23052 14.2073 6.02803 14.5812 6.01245C14.659 6.01245 14.846 6.02803 14.9706 6.12149C15.064 6.19937 15.0952 6.3084 15.1108 6.38628C15.1263 6.46416 15.1419 6.6355 15.1263 6.77569C14.9706 8.3489 14.3319 12.1963 13.9893 13.9564C13.8491 14.704 13.5687 14.9533 13.3039 14.9844C12.7276 15.0311 12.2759 14.595 11.7151 14.2368C10.8428 13.6604 10.3444 13.3022 9.48771 12.7414C8.5064 12.0872 9.14503 11.729 9.70578 11.1526C9.84596 10.9969 12.4161 8.676 12.4628 8.45793C12.4628 8.42678 12.4784 8.33332 12.4161 8.2866C12.3538 8.23987 12.2759 8.25544 12.2136 8.27102C12.1201 8.28659 10.7182 9.22117 7.99238 11.0592C7.5874 11.3396 7.22914 11.4642 6.90204 11.4642C6.54378 11.4642 5.85842 11.2617 5.34441 11.0903C4.72135 10.8878 4.22291 10.7788 4.26964 10.4361C4.30079 10.2648 4.55001 10.0779 5.0173 9.89096Z" fill="white"/>
<defs>
<linearGradient id="paint0_linear_577_930" x1="0.5" y1="9.99276" x2="20.4855" y2="9.99276" gradientUnits="userSpaceOnUse">
<stop stop-color="#2AABEE"/>
<stop offset="1" stop-color="#229ED9"/>
</linearGradient>
</defs>
</svg>
