<svg width="21" height="22" viewBox="0 0 21 22" fill="none" xmlns="http://www.w3.org/2000/svg">
<path fill-rule="evenodd" clip-rule="evenodd" d="M17.5859 3.87197C15.7061 1.98972 13.2059 0.952615 10.542 0.95166C5.05283 0.95166 0.58547 5.41855 0.58356 10.9092C0.582605 12.6644 1.04147 14.3776 1.91288 15.8874L0.5 21.0481L5.77909 19.6634C7.2335 20.457 8.87128 20.8748 10.5377 20.8753H10.542C16.0302 20.8753 20.4981 16.4079 20.5 10.9173C20.5009 8.25627 19.4662 5.7547 17.5859 3.87244V3.87197ZM10.542 19.1935H10.5387C9.05367 19.1931 7.59689 18.7939 6.32583 18.0399L6.02357 17.8604L2.89078 18.6822L3.72686 15.6277L3.53013 15.3144C2.70169 13.9966 2.26383 12.4734 2.26479 10.9097C2.2667 6.3463 5.97963 2.63337 10.5454 2.63337C12.7561 2.63432 14.8342 3.49619 16.3969 5.06091C17.9598 6.62516 18.8197 8.7051 18.8188 10.9163C18.8168 15.4802 15.1039 19.1931 10.542 19.1931V19.1935ZM15.0819 12.9948C14.8332 12.8702 13.6099 12.2685 13.3816 12.1855C13.1534 12.1024 12.9877 12.0609 12.822 12.3101C12.6563 12.5594 12.1793 13.1199 12.0342 13.2856C11.889 13.4518 11.7438 13.4723 11.4951 13.3477C11.2463 13.223 10.4446 12.9604 9.49395 12.1129C8.75433 11.453 8.25483 10.6384 8.10972 10.3892C7.96456 10.1399 8.09444 10.0053 8.21856 9.8816C8.33028 9.76988 8.46733 9.59083 8.59194 9.44566C8.71661 9.30049 8.75767 9.19644 8.84072 9.03071C8.92383 8.86455 8.88228 8.71944 8.82022 8.59477C8.75811 8.47016 8.26061 7.24538 8.05289 6.74738C7.85089 6.26227 7.64561 6.32816 7.49328 6.32004C7.34811 6.31288 7.18244 6.31145 7.01628 6.31145C6.85011 6.31145 6.58078 6.37352 6.35256 6.62277C6.12433 6.87199 5.48162 7.4741 5.48162 8.69838C5.48162 9.92266 6.37311 11.1064 6.49772 11.2725C6.62233 11.4387 8.25244 13.9517 10.7483 15.0299C11.3418 15.2863 11.8054 15.4395 12.1669 15.5542C12.7628 15.7437 13.3052 15.717 13.734 15.653C14.212 15.5814 15.2061 15.0509 15.4133 14.4698C15.6206 13.8887 15.6206 13.3902 15.5585 13.2865C15.4964 13.1829 15.3303 13.1204 15.0815 12.9958L15.0819 12.9948Z" fill="#25D366"/>
</svg>
