<svg width="32" height="32" viewBox="0 0 32 32" fill="none" xmlns="http://www.w3.org/2000/svg">
<path d="M21.3332 17.2001V22.8001C21.3332 27.4667 19.4665 29.3334 14.7998 29.3334H9.19984C4.53317 29.3334 2.6665 27.4667 2.6665 22.8001V17.2001C2.6665 12.5334 4.53317 10.6667 9.19984 10.6667H14.7998C19.4665 10.6667 21.3332 12.5334 21.3332 17.2001Z" stroke="#120B48" stroke-width="2.5" stroke-linecap="round" stroke-linejoin="round"/>
<path d="M29.3332 9.20008V14.8001C29.3332 19.4667 27.4665 21.3334 22.7998 21.3334H21.3332V17.2001C21.3332 12.5334 19.4665 10.6667 14.7998 10.6667H10.6665V9.20008C10.6665 4.53341 12.5332 2.66675 17.1998 2.66675H22.7998C27.4665 2.66675 29.3332 4.53341 29.3332 9.20008Z" stroke="#120B48" stroke-width="2.5" stroke-linecap="round" stroke-linejoin="round"/>
</svg>
