<!DOCTYPE svg PUBLIC "-//W3C//DTD SVG 1.1//EN" "http://www.w3.org/Graphics/SVG/1.1/DTD/svg11.dtd">
<!-- Uploaded to: SVG Repo, www.svgrepo.com, Transformed by: SVG Repo Mixer Tools -->
<svg width="800px" height="800px" viewBox="0 0 28.00 28.00" fill="none" xmlns="http://www.w3.org/2000/svg" stroke="#000000" stroke-width="0.00028">
<g id="SVGRepo_bgCarrier" stroke-width="0"/>
<g id="SVGRepo_tracerCarrier" stroke-linecap="round" stroke-linejoin="round"/>
<g id="SVGRepo_iconCarrier">
<path clip-rule="evenodd" d="M8.85714 2C10.2878 2 11.6162 2.44463 12.7154 3.20515C13.1897 3.53331 13.6213 3.92028 14 4.35573C14.3787 3.92028 14.8103 3.53331 15.2846 3.20515C16.3838 2.44463 17.7122 2 19.1429 2C22.93 2 26 5.11539 26 8.95841C26 13.6204 23.2697 18.1581 14.6855 25.7523C14.2987 26.0945 13.7153 26.0802 13.3435 25.7212C5.57029 18.2161 2 14.4596 2 8.95841C2 5.11539 5.07005 2 8.85714 2ZM12.5005 5.69874L13.2455 6.55523C13.6441 7.01354 14.3559 7.01354 14.7545 6.55523L15.4995 5.69874C16.3924 4.67212 17.6924 4.02954 19.1429 4.02954C21.8254 4.02954 24 6.23627 24 8.95841C24 12.4335 22.1642 16.1947 14.7507 22.9817C14.3631 23.3366 13.7656 23.3258 13.389 22.9593C10.1819 19.8384 7.90173 17.4961 6.36637 15.3837C4.6874 13.0736 4 11.1716 4 8.95841C4 6.23627 6.17462 4.02954 8.85714 4.02954C10.3076 4.02954 11.6076 4.67212 12.5005 5.69874Z" fill="#ec0909" fill-rule="evenodd"/>
</g>
</svg>