<svg width="105" height="44" viewBox="0 0 105 44" fill="none" xmlns="http://www.w3.org/2000/svg">
<path d="M22.667 24.4998H21.8337C21.3916 24.4998 20.9677 24.3242 20.6551 24.0117C20.3426 23.6991 20.167 23.2752 20.167 22.8332V15.3332C20.167 14.8911 20.3426 14.4672 20.6551 14.1547C20.9677 13.8421 21.3916 13.6665 21.8337 13.6665H29.3337C29.7757 13.6665 30.1996 13.8421 30.5122 14.1547C30.8247 14.4672 31.0003 14.8911 31.0003 15.3332V16.1665M27.667 19.4998H35.167C36.0875 19.4998 36.8337 20.246 36.8337 21.1665V28.6665C36.8337 29.587 36.0875 30.3332 35.167 30.3332H27.667C26.7465 30.3332 26.0003 29.587 26.0003 28.6665V21.1665C26.0003 20.246 26.7465 19.4998 27.667 19.4998Z" stroke="#120B48" stroke-width="1.67" stroke-linecap="round" stroke-linejoin="round"/>
<path d="M52.356 28.24C51.2093 28.24 50.236 27.9867 49.436 27.48C48.636 26.9733 48.0253 26.2693 47.604 25.368C47.188 24.4667 46.98 23.424 46.98 22.24C46.98 21.056 47.188 20.0133 47.604 19.112C48.0253 18.2107 48.636 17.5067 49.436 17C50.236 16.4933 51.2093 16.24 52.356 16.24C53.6893 16.24 54.7853 16.5787 55.644 17.256C56.508 17.9333 57.1027 18.8453 57.428 19.992L55.98 20.376C55.7453 19.5173 55.3267 18.84 54.724 18.344C54.1213 17.848 53.332 17.6 52.356 17.6C51.4973 17.6 50.7827 17.7947 50.212 18.184C49.6413 18.5733 49.212 19.1173 48.924 19.816C48.636 20.5093 48.4893 21.3173 48.484 22.24C48.4787 23.1573 48.62 23.9653 48.908 24.664C49.196 25.3573 49.628 25.9013 50.204 26.296C50.78 26.6853 51.4973 26.88 52.356 26.88C53.332 26.88 54.1213 26.632 54.724 26.136C55.3267 25.6347 55.7453 24.9573 55.98 24.104L57.428 24.488C57.1027 25.6293 56.508 26.5413 55.644 27.224C54.7853 27.9013 53.6893 28.24 52.356 28.24ZM62.8625 28.24C62.0038 28.24 61.2625 28.0453 60.6385 27.656C60.0198 27.2667 59.5425 26.728 59.2065 26.04C58.8705 25.352 58.7025 24.5627 58.7025 23.672C58.7025 22.7653 58.8732 21.9707 59.2145 21.288C59.5558 20.6053 60.0385 20.0747 60.6625 19.696C61.2865 19.312 62.0198 19.12 62.8625 19.12C63.7265 19.12 64.4705 19.3147 65.0945 19.704C65.7185 20.088 66.1958 20.624 66.5265 21.312C66.8625 21.9947 67.0305 22.7813 67.0305 23.672C67.0305 24.5733 66.8625 25.368 66.5265 26.056C66.1905 26.7387 65.7105 27.2747 65.0865 27.664C64.4625 28.048 63.7212 28.24 62.8625 28.24ZM62.8625 26.888C63.7585 26.888 64.4252 26.5893 64.8625 25.992C65.2998 25.3947 65.5185 24.6213 65.5185 23.672C65.5185 22.696 65.2972 21.92 64.8545 21.344C64.4118 20.7627 63.7478 20.472 62.8625 20.472C62.2598 20.472 61.7638 20.608 61.3745 20.88C60.9852 21.152 60.6945 21.528 60.5025 22.008C60.3105 22.488 60.2145 23.0427 60.2145 23.672C60.2145 24.6427 60.4385 25.4213 60.8865 26.008C61.3345 26.5947 61.9932 26.888 62.8625 26.888ZM72.7599 28.24C71.9492 28.24 71.2665 28.04 70.7119 27.64C70.1572 27.2347 69.7359 26.688 69.4479 26C69.1652 25.3067 69.0239 24.5307 69.0239 23.672C69.0239 22.8027 69.1652 22.024 69.4479 21.336C69.7359 20.648 70.1572 20.1067 70.7119 19.712C71.2719 19.3173 71.9572 19.12 72.7679 19.12C73.5679 19.12 74.2559 19.32 74.8319 19.72C75.4132 20.1147 75.8585 20.656 76.1679 21.344C76.4772 22.032 76.6319 22.808 76.6319 23.672C76.6319 24.536 76.4772 25.312 76.1679 26C75.8585 26.688 75.4132 27.2347 74.8319 27.64C74.2559 28.04 73.5652 28.24 72.7599 28.24ZM68.7839 31.84V19.36H70.0559V25.72H70.2159V31.84H68.7839ZM72.5839 26.936C73.1545 26.936 73.6265 26.792 73.9999 26.504C74.3732 26.216 74.6532 25.8267 74.8399 25.336C75.0265 24.84 75.1199 24.2853 75.1199 23.672C75.1199 23.064 75.0265 22.5147 74.8399 22.024C74.6585 21.5333 74.3759 21.144 73.9919 20.856C73.6132 20.568 73.1305 20.424 72.5439 20.424C71.9839 20.424 71.5199 20.5627 71.1519 20.84C70.7839 21.112 70.5092 21.4933 70.3279 21.984C70.1465 22.4693 70.0559 23.032 70.0559 23.672C70.0559 24.3013 70.1439 24.864 70.3199 25.36C70.5012 25.8507 70.7785 26.2373 71.1519 26.52C71.5252 26.7973 72.0025 26.936 72.5839 26.936ZM79.2731 31.84L80.9451 27.296L80.9691 28.64L77.1931 19.36H78.6891L81.6491 26.824H81.1371L83.9131 19.36H85.3611L80.6571 31.84H79.2731Z" fill="#120B48"/>
<path d="M1 8C1 3.85786 4.35786 0.5 8.5 0.5H96.5C100.642 0.5 104 3.85786 104 8V36C104 40.1421 100.642 43.5 96.5 43.5H8.5C4.35786 43.5 1 40.1421 1 36V8Z" stroke="#120B48"/>
</svg>
