<svg width="138" height="40" viewBox="0 0 138 40" fill="none" xmlns="http://www.w3.org/2000/svg">
<g clip-path="url(#clip0_577_955)">
<path d="M31.6401 16.8421C31.0804 14.9122 30.0621 13.1464 28.6721 11.6953C27.2821 10.2442 25.5617 9.15092 23.6577 8.50876C21.7766 7.96121 19.7993 7.82666 17.8614 8.11432C15.9234 8.40199 14.0705 9.10507 12.4296 10.1754C12.2946 10.3107 12.1252 10.4067 11.9398 10.4531C11.7544 10.4994 11.5598 10.4944 11.377 10.4386C11.0084 10.3192 10.6763 10.1079 10.4121 9.82455C10.2197 9.47744 10.1575 9.07308 10.2366 8.68419C10.2869 8.49754 10.3751 8.32327 10.4959 8.17233C10.6167 8.02138 10.7673 7.89701 10.9384 7.807C15.5875 5.0877 20.1489 4.38595 24.5349 5.78946C26.6942 6.50768 28.6656 7.69964 30.3047 9.27811C31.9439 10.8566 33.2094 12.7816 34.0085 14.9123H39.8857C38.684 10.1719 35.7871 6.0361 31.7427 3.28683C27.6983 0.537565 22.7868 -0.634627 17.9368 -0.00811872C13.0868 0.618389 8.63434 3.00017 5.42135 6.68692C2.20837 10.3737 0.457493 15.1098 0.499772 20C0.499772 20.7895 0.587491 21.4912 0.587491 22.2807H8.04363C8.32839 22.2645 8.61069 22.3414 8.84801 22.4996C9.08532 22.6578 9.26481 22.8888 9.35942 23.1579C9.93235 25.0811 10.9553 26.8402 12.3434 28.2894C13.7316 29.7385 15.445 30.8361 17.3419 31.4912C19.223 32.0388 21.2002 32.1733 23.1382 31.8856C25.0761 31.598 26.929 30.8949 28.5699 29.8245C28.705 29.6892 28.8743 29.5933 29.0597 29.5469C29.2452 29.5005 29.4398 29.5055 29.6226 29.5614C29.9911 29.6808 30.3232 29.8921 30.5875 30.1754C30.7799 30.5225 30.8421 30.9269 30.7629 31.3158C30.7127 31.5024 30.6244 31.6767 30.5036 31.8276C30.3829 31.9786 30.2323 32.103 30.0612 32.193C27.417 33.9722 24.3008 34.9192 21.1138 34.9123C19.5386 34.9004 17.9732 34.6641 16.4647 34.2105C14.2963 33.5094 12.3162 32.3235 10.6747 30.7428C9.03315 29.162 7.77338 27.2281 6.991 25.0877H1.20153C2.46964 29.7501 5.38277 33.7958 9.40243 36.477C13.4221 39.1582 18.2765 40.2935 23.0683 39.6731C27.8601 39.0527 32.2653 36.7186 35.4696 33.1022C38.674 29.4858 40.4608 24.8316 40.4998 20C40.5161 19.2679 40.4868 18.5355 40.4121 17.807H33.0436C32.7445 17.7872 32.4563 17.6872 32.2093 17.5174C31.9623 17.3476 31.7657 17.1143 31.6401 16.8421Z" fill="#100A42"/>
<path d="M20.5841 28.7496C22.311 28.733 23.9944 28.2057 25.4222 27.2342C26.8501 26.2627 27.9585 24.8904 28.6078 23.2902C29.2572 21.6899 29.4185 19.9333 29.0715 18.2416C28.7244 16.5498 27.8845 14.9986 26.6575 13.7833C25.4305 12.568 23.8713 11.7429 22.1763 11.4121C20.4813 11.0812 18.7263 11.2593 17.1324 11.924C15.5384 12.5887 14.1768 13.7102 13.219 15.1472C12.2612 16.5843 11.7501 18.2726 11.75 19.9996C11.7499 21.1558 11.979 22.3005 12.424 23.3676C12.869 24.4347 13.521 25.4031 14.3425 26.2167C15.1639 27.0303 16.1385 27.6731 17.2098 28.1078C18.2811 28.5426 19.428 28.7607 20.5841 28.7496Z" fill="white"/>
</g>
<path d="M49.5114 25.5V13.8636H51.9716V18.6648H56.9659V13.8636H59.4205V25.5H56.9659V20.6932H51.9716V25.5H49.5114ZM65.3807 25.6705C64.483 25.6705 63.7102 25.4886 63.0625 25.125C62.4186 24.7576 61.9223 24.2386 61.5739 23.5682C61.2254 22.8939 61.0511 22.0966 61.0511 21.1761C61.0511 20.2784 61.2254 19.4905 61.5739 18.8125C61.9223 18.1345 62.4129 17.6061 63.0455 17.2273C63.6818 16.8485 64.428 16.6591 65.2841 16.6591C65.8598 16.6591 66.3958 16.7519 66.892 16.9375C67.392 17.1193 67.8277 17.3939 68.1989 17.7614C68.5739 18.1288 68.8655 18.5909 69.0739 19.1477C69.2822 19.7008 69.3864 20.3485 69.3864 21.0909V21.7557H62.017V20.2557H67.108C67.108 19.9072 67.0322 19.5985 66.8807 19.3295C66.7292 19.0606 66.5189 18.8504 66.25 18.6989C65.9848 18.5436 65.6761 18.4659 65.3239 18.4659C64.9564 18.4659 64.6307 18.5511 64.3466 18.7216C64.0663 18.8883 63.8466 19.1136 63.6875 19.3977C63.5284 19.678 63.447 19.9905 63.4432 20.3352V21.7614C63.4432 22.1932 63.5227 22.5663 63.6818 22.8807C63.8447 23.1951 64.0739 23.4375 64.3693 23.608C64.6648 23.7784 65.0152 23.8636 65.4205 23.8636C65.6894 23.8636 65.9356 23.8258 66.1591 23.75C66.3826 23.6742 66.5739 23.5606 66.733 23.4091C66.892 23.2576 67.0133 23.072 67.0966 22.8523L69.3352 23C69.2216 23.5379 68.9886 24.0076 68.6364 24.4091C68.2879 24.8068 67.8371 25.1174 67.2841 25.3409C66.7348 25.5606 66.1004 25.6705 65.3807 25.6705ZM73.3864 13.8636V25.5H70.9659V13.8636H73.3864ZM75.3253 28.7727V16.7727H77.7116V18.2386H77.8196C77.9257 18.0038 78.0791 17.7652 78.2798 17.5227C78.4844 17.2765 78.7495 17.072 79.0753 16.9091C79.4048 16.7424 79.8139 16.6591 80.3026 16.6591C80.9389 16.6591 81.526 16.8258 82.0639 17.1591C82.6018 17.4886 83.0317 17.9867 83.3537 18.6534C83.6757 19.3163 83.8366 20.1477 83.8366 21.1477C83.8366 22.1212 83.6795 22.9432 83.3651 23.6136C83.0545 24.2803 82.6302 24.786 82.0923 25.1307C81.5582 25.4716 80.9598 25.642 80.2969 25.642C79.8272 25.642 79.4276 25.5644 79.098 25.4091C78.7723 25.2538 78.5052 25.0587 78.2969 24.8239C78.0885 24.5852 77.9295 24.3447 77.8196 24.1023H77.7457V28.7727H75.3253ZM77.6946 21.1364C77.6946 21.6553 77.7666 22.108 77.9105 22.4943C78.0545 22.8807 78.2628 23.1818 78.5355 23.3977C78.8082 23.6098 79.1397 23.7159 79.5298 23.7159C79.9238 23.7159 80.2571 23.608 80.5298 23.392C80.8026 23.1723 81.009 22.8693 81.1491 22.483C81.2931 22.0928 81.3651 21.6439 81.3651 21.1364C81.3651 20.6326 81.295 20.1894 81.1548 19.8068C81.0147 19.4242 80.8082 19.125 80.5355 18.9091C80.2628 18.6932 79.9276 18.5852 79.5298 18.5852C79.1359 18.5852 78.8026 18.6894 78.5298 18.8977C78.2609 19.1061 78.0545 19.4015 77.9105 19.7841C77.7666 20.1667 77.6946 20.6174 77.6946 21.1364ZM85.4957 13.8636H88.5298L91.7344 21.6818H91.8707L95.0753 13.8636H98.1094V25.5H95.723V17.9261H95.6264L92.6151 25.4432H90.9901L87.9787 17.8977H87.8821V25.5H85.4957V13.8636ZM104.068 25.6705C103.17 25.6705 102.398 25.4886 101.75 25.125C101.106 24.7576 100.61 24.2386 100.261 23.5682C99.9129 22.8939 99.7386 22.0966 99.7386 21.1761C99.7386 20.2784 99.9129 19.4905 100.261 18.8125C100.61 18.1345 101.1 17.6061 101.733 17.2273C102.369 16.8485 103.116 16.6591 103.972 16.6591C104.547 16.6591 105.083 16.7519 105.58 16.9375C106.08 17.1193 106.515 17.3939 106.886 17.7614C107.261 18.1288 107.553 18.5909 107.761 19.1477C107.97 19.7008 108.074 20.3485 108.074 21.0909V21.7557H100.705V20.2557H105.795C105.795 19.9072 105.72 19.5985 105.568 19.3295C105.417 19.0606 105.206 18.8504 104.938 18.6989C104.672 18.5436 104.364 18.4659 104.011 18.4659C103.644 18.4659 103.318 18.5511 103.034 18.7216C102.754 18.8883 102.534 19.1136 102.375 19.3977C102.216 19.678 102.134 19.9905 102.131 20.3352V21.7614C102.131 22.1932 102.21 22.5663 102.369 22.8807C102.532 23.1951 102.761 23.4375 103.057 23.608C103.352 23.7784 103.703 23.8636 104.108 23.8636C104.377 23.8636 104.623 23.8258 104.847 23.75C105.07 23.6742 105.261 23.5606 105.42 23.4091C105.58 23.2576 105.701 23.072 105.784 22.8523L108.023 23C107.909 23.5379 107.676 24.0076 107.324 24.4091C106.975 24.8068 106.525 25.1174 105.972 25.3409C105.422 25.5606 104.788 25.6705 104.068 25.6705ZM120.392 19.6818C120.392 20.9508 120.152 22.0303 119.67 22.9205C119.193 23.8106 118.542 24.4905 117.716 24.9602C116.894 25.4261 115.97 25.6591 114.943 25.6591C113.909 25.6591 112.981 25.4242 112.159 24.9545C111.337 24.4848 110.688 23.8049 110.21 22.9148C109.733 22.0246 109.494 20.947 109.494 19.6818C109.494 18.4129 109.733 17.3333 110.21 16.4432C110.688 15.553 111.337 14.875 112.159 14.4091C112.981 13.9394 113.909 13.7045 114.943 13.7045C115.97 13.7045 116.894 13.9394 117.716 14.4091C118.542 14.875 119.193 15.553 119.67 16.4432C120.152 17.3333 120.392 18.4129 120.392 19.6818ZM117.898 19.6818C117.898 18.8598 117.775 18.1667 117.528 17.6023C117.286 17.0379 116.943 16.6098 116.5 16.3182C116.057 16.0265 115.538 15.8807 114.943 15.8807C114.348 15.8807 113.83 16.0265 113.386 16.3182C112.943 16.6098 112.598 17.0379 112.352 17.6023C112.11 18.1667 111.989 18.8598 111.989 19.6818C111.989 20.5038 112.11 21.197 112.352 21.7614C112.598 22.3258 112.943 22.7538 113.386 23.0455C113.83 23.3371 114.348 23.483 114.943 23.483C115.538 23.483 116.057 23.3371 116.5 23.0455C116.943 22.7538 117.286 22.3258 117.528 21.7614C117.775 21.197 117.898 20.5038 117.898 19.6818ZM127.766 21.7841V16.7727H130.186V25.5H127.862V23.9148H127.771C127.574 24.4261 127.247 24.8371 126.788 25.1477C126.334 25.4583 125.779 25.6136 125.124 25.6136C124.54 25.6136 124.027 25.4811 123.584 25.2159C123.141 24.9508 122.794 24.5739 122.544 24.0852C122.298 23.5966 122.173 23.0114 122.169 22.3295V16.7727H124.589V21.8977C124.593 22.4129 124.732 22.8201 125.004 23.1193C125.277 23.4186 125.643 23.5682 126.101 23.5682C126.393 23.5682 126.665 23.5019 126.919 23.3693C127.173 23.233 127.377 23.0322 127.533 22.767C127.692 22.5019 127.769 22.1742 127.766 21.7841ZM136.764 16.7727V18.5909H131.509V16.7727H136.764ZM132.702 14.6818H135.122V22.8182C135.122 23.0417 135.156 23.2159 135.224 23.3409C135.293 23.4621 135.387 23.5473 135.509 23.5966C135.634 23.6458 135.777 23.6705 135.94 23.6705C136.054 23.6705 136.168 23.661 136.281 23.642C136.395 23.6193 136.482 23.6023 136.543 23.5909L136.923 25.392C136.802 25.4299 136.632 25.4735 136.412 25.5227C136.192 25.5758 135.925 25.608 135.611 25.6193C135.027 25.642 134.516 25.5644 134.077 25.3864C133.641 25.2083 133.302 24.9318 133.06 24.5568C132.817 24.1818 132.698 23.7083 132.702 23.1364V14.6818Z" fill="#100A42"/>
<defs>
<clipPath id="clip0_577_955">
<rect width="40" height="40" fill="white" transform="translate(0.5)"/>
</clipPath>
</defs>
</svg>
