<svg width="134" height="48" viewBox="0 0 134 48" fill="none" xmlns="http://www.w3.org/2000/svg">
<path d="M26.5 34C32.0228 34 36.5 29.5228 36.5 24C36.5 18.4772 32.0228 14 26.5 14C20.9772 14 16.5 18.4772 16.5 24C16.5 29.5228 20.9772 34 26.5 34Z" fill="url(#paint0_linear_577_928)"/>
<path fill-rule="evenodd" clip-rule="evenodd" d="M21.0173 23.891C23.9301 22.6137 25.8771 21.7882 26.8584 21.3832C29.631 20.2305 30.2073 20.028 30.5812 20.0125C30.659 20.0125 30.846 20.028 30.9706 20.1215C31.064 20.1994 31.0952 20.3084 31.1108 20.3863C31.1263 20.4642 31.1419 20.6355 31.1263 20.7757C30.9706 22.3489 30.3319 26.1963 29.9893 27.9564C29.8491 28.704 29.5687 28.9533 29.3039 28.9844C28.7276 29.0311 28.2759 28.595 27.7151 28.2368C26.8428 27.6604 26.3444 27.3022 25.4877 26.7414C24.5064 26.0872 25.145 25.729 25.7058 25.1526C25.846 24.9969 28.4161 22.676 28.4628 22.4579C28.4628 22.4268 28.4784 22.3333 28.4161 22.2866C28.3538 22.2399 28.2759 22.2554 28.2136 22.271C28.1201 22.2866 26.7182 23.2212 23.9924 25.0592C23.5874 25.3396 23.2291 25.4642 22.902 25.4642C22.5438 25.4642 21.8584 25.2617 21.3444 25.0903C20.7214 24.8878 20.2229 24.7788 20.2696 24.4361C20.3008 24.2648 20.55 24.0779 21.0173 23.891Z" fill="white"/>
<path d="M45.2045 19.875V18.3636H54.2102V19.875H50.5795V30H48.8295V19.875H45.2045ZM58.7197 30.1761C57.8598 30.1761 57.1193 29.9924 56.4981 29.625C55.8806 29.2538 55.4034 28.733 55.0662 28.0625C54.7329 27.3883 54.5662 26.5985 54.5662 25.6932C54.5662 24.7992 54.7329 24.0114 55.0662 23.3295C55.4034 22.6477 55.8731 22.1155 56.4753 21.733C57.0814 21.3504 57.7897 21.1591 58.6003 21.1591C59.0928 21.1591 59.57 21.2405 60.0322 21.4034C60.4943 21.5663 60.9091 21.822 61.2765 22.1705C61.6439 22.5189 61.9337 22.9716 62.1458 23.5284C62.3579 24.0814 62.464 24.7538 62.464 25.5455V26.1477H55.5265V24.875H60.7992C60.7992 24.428 60.7083 24.0322 60.5265 23.6875C60.3447 23.339 60.089 23.0644 59.7594 22.8636C59.4337 22.6629 59.0511 22.5625 58.6117 22.5625C58.1344 22.5625 57.7178 22.6799 57.3617 22.9148C57.0094 23.1458 56.7367 23.4489 56.5435 23.8239C56.3541 24.1951 56.2594 24.5985 56.2594 25.0341V26.0284C56.2594 26.6117 56.3617 27.108 56.5662 27.517C56.7746 27.9261 57.0644 28.2386 57.4356 28.4545C57.8068 28.6667 58.2405 28.7727 58.7367 28.7727C59.0587 28.7727 59.3522 28.7273 59.6174 28.6364C59.8825 28.5417 60.1117 28.4015 60.3049 28.2159C60.4981 28.0303 60.6458 27.8011 60.7481 27.5284L62.356 27.8182C62.2272 28.2917 61.9962 28.7064 61.6628 29.0625C61.3333 29.4148 60.9185 29.6894 60.4185 29.8864C59.9223 30.0795 59.356 30.1761 58.7197 30.1761ZM66.2078 18.3636V30H64.5089V18.3636H66.2078ZM72.4147 30.1761C71.5548 30.1761 70.8143 29.9924 70.1931 29.625C69.5756 29.2538 69.0984 28.733 68.7612 28.0625C68.4279 27.3883 68.2612 26.5985 68.2612 25.6932C68.2612 24.7992 68.4279 24.0114 68.7612 23.3295C69.0984 22.6477 69.5681 22.1155 70.1703 21.733C70.7764 21.3504 71.4847 21.1591 72.2953 21.1591C72.7878 21.1591 73.265 21.2405 73.7272 21.4034C74.1893 21.5663 74.6041 21.822 74.9715 22.1705C75.3389 22.5189 75.6287 22.9716 75.8408 23.5284C76.0529 24.0814 76.159 24.7538 76.159 25.5455V26.1477H69.2215V24.875H74.4942C74.4942 24.428 74.4033 24.0322 74.2215 23.6875C74.0397 23.339 73.784 23.0644 73.4544 22.8636C73.1287 22.6629 72.7461 22.5625 72.3067 22.5625C71.8294 22.5625 71.4128 22.6799 71.0567 22.9148C70.7044 23.1458 70.4317 23.4489 70.2385 23.8239C70.0491 24.1951 69.9544 24.5985 69.9544 25.0341V26.0284C69.9544 26.6117 70.0567 27.108 70.2612 27.517C70.4696 27.9261 70.7594 28.2386 71.1306 28.4545C71.5018 28.6667 71.9355 28.7727 72.4317 28.7727C72.7537 28.7727 73.0472 28.7273 73.3124 28.6364C73.5775 28.5417 73.8067 28.4015 73.9999 28.2159C74.1931 28.0303 74.3408 27.8011 74.4431 27.5284L76.051 27.8182C75.9222 28.2917 75.6912 28.7064 75.3578 29.0625C75.0283 29.4148 74.6135 29.6894 74.1135 29.8864C73.6173 30.0795 73.051 30.1761 72.4147 30.1761ZM81.863 33.4545C81.1698 33.4545 80.5732 33.3636 80.0732 33.1818C79.577 33 79.1717 32.7595 78.8573 32.4602C78.5429 32.161 78.3081 31.8333 78.1528 31.4773L79.613 30.875C79.7153 31.0417 79.8516 31.2178 80.0221 31.4034C80.1963 31.5928 80.4312 31.7538 80.7266 31.8864C81.0259 32.0189 81.4104 32.0852 81.8801 32.0852C82.524 32.0852 83.0562 31.928 83.4766 31.6136C83.8971 31.303 84.1073 30.8068 84.1073 30.125V28.4091H83.9994C83.8971 28.5947 83.7494 28.8011 83.5562 29.0284C83.3668 29.2557 83.1054 29.4527 82.7721 29.6193C82.4388 29.786 82.0051 29.8693 81.471 29.8693C80.7816 29.8693 80.1604 29.7083 79.6073 29.3864C79.0581 29.0606 78.6225 28.5814 78.3005 27.9489C77.9823 27.3125 77.8232 26.5303 77.8232 25.6023C77.8232 24.6742 77.9804 23.8788 78.2948 23.2159C78.613 22.553 79.0486 22.0455 79.6016 21.6932C80.1547 21.3371 80.7816 21.1591 81.4823 21.1591C82.024 21.1591 82.4615 21.25 82.7948 21.4318C83.1282 21.6098 83.3876 21.8182 83.5732 22.0568C83.7626 22.2955 83.9085 22.5057 84.0107 22.6875H84.1357V21.2727H85.8005V30.1932C85.8005 30.9432 85.6263 31.5587 85.2778 32.0398C84.9293 32.5208 84.4577 32.8769 83.863 33.108C83.2721 33.339 82.6054 33.4545 81.863 33.4545ZM81.846 28.4602C82.3346 28.4602 82.7475 28.3466 83.0846 28.1193C83.4255 27.8883 83.6831 27.5587 83.8573 27.1307C84.0354 26.6989 84.1244 26.1818 84.1244 25.5795C84.1244 24.9924 84.0373 24.4754 83.863 24.0284C83.6888 23.5814 83.4331 23.233 83.096 22.983C82.7588 22.7292 82.3422 22.6023 81.846 22.6023C81.3346 22.6023 80.9085 22.7348 80.5676 23C80.2266 23.2614 79.9691 23.6174 79.7948 24.0682C79.6244 24.5189 79.5391 25.0227 79.5391 25.5795C79.5391 26.1515 79.6263 26.6534 79.8005 27.0852C79.9748 27.517 80.2323 27.8542 80.5732 28.0966C80.9179 28.339 81.3422 28.4602 81.846 28.4602ZM88.2389 30V21.2727H89.881V22.6591H89.9719C90.131 22.1894 90.4113 21.8201 90.8128 21.5511C91.2181 21.2784 91.6764 21.142 92.1878 21.142C92.2938 21.142 92.4188 21.1458 92.5628 21.1534C92.7105 21.161 92.826 21.1705 92.9094 21.1818V22.8068C92.8412 22.7879 92.72 22.767 92.5457 22.7443C92.3715 22.7178 92.1973 22.7045 92.023 22.7045C91.6215 22.7045 91.2635 22.7898 90.9491 22.9602C90.6385 23.1269 90.3923 23.3598 90.2105 23.6591C90.0287 23.9545 89.9378 24.2917 89.9378 24.6705V30H88.2389ZM97.0012 30.1932C96.4482 30.1932 95.9482 30.0909 95.5012 29.8864C95.0542 29.678 94.7001 29.3769 94.4387 28.983C94.1811 28.589 94.0523 28.1061 94.0523 27.5341C94.0523 27.0417 94.147 26.6364 94.3364 26.3182C94.5258 26 94.7815 25.7481 95.1035 25.5625C95.4254 25.3769 95.7853 25.2367 96.183 25.142C96.5807 25.0473 96.986 24.9754 97.3989 24.9261C97.9216 24.8655 98.3459 24.8163 98.6716 24.7784C98.9974 24.7367 99.2341 24.6705 99.3819 24.5795C99.5296 24.4886 99.6035 24.3409 99.6035 24.1364V24.0966C99.6035 23.6004 99.4633 23.2159 99.183 22.9432C98.9065 22.6705 98.4936 22.5341 97.9444 22.5341C97.3724 22.5341 96.9216 22.661 96.5921 22.9148C96.2663 23.1648 96.041 23.4432 95.916 23.75L94.3194 23.3864C94.5088 22.8561 94.7853 22.428 95.1489 22.1023C95.5163 21.7727 95.9387 21.5341 96.416 21.3864C96.8932 21.2348 97.3951 21.1591 97.9216 21.1591C98.2701 21.1591 98.6394 21.2008 99.0296 21.2841C99.4235 21.3636 99.791 21.5114 100.132 21.7273C100.477 21.9432 100.759 22.2519 100.978 22.6534C101.198 23.0511 101.308 23.5682 101.308 24.2045V30H99.6489V28.8068H99.5807C99.4709 29.0265 99.3061 29.2424 99.0864 29.4545C98.8667 29.6667 98.5845 29.8428 98.2398 29.983C97.8951 30.1231 97.4823 30.1932 97.0012 30.1932ZM97.3705 28.8295C97.8402 28.8295 98.2417 28.7367 98.5751 28.5511C98.9122 28.3655 99.1679 28.1231 99.3421 27.8239C99.5201 27.5208 99.6091 27.197 99.6091 26.8523V25.7273C99.5485 25.7879 99.4311 25.8447 99.2569 25.8977C99.0864 25.947 98.8913 25.9905 98.6716 26.0284C98.452 26.0625 98.2379 26.0947 98.0296 26.125C97.8213 26.1515 97.647 26.1742 97.5069 26.1932C97.1773 26.2348 96.8762 26.3049 96.6035 26.4034C96.3345 26.5019 96.1186 26.6439 95.9557 26.8295C95.7966 27.0114 95.7171 27.2538 95.7171 27.5568C95.7171 27.9773 95.8724 28.2955 96.183 28.5114C96.4936 28.7235 96.8894 28.8295 97.3705 28.8295ZM103.731 30V21.2727H105.361V22.6932H105.469C105.651 22.2121 105.949 21.8371 106.361 21.5682C106.774 21.2955 107.269 21.1591 107.844 21.1591C108.428 21.1591 108.916 21.2955 109.31 21.5682C109.708 21.8409 110.002 22.2159 110.191 22.6932H110.282C110.49 22.2273 110.822 21.8561 111.276 21.5795C111.731 21.2992 112.272 21.1591 112.901 21.1591C113.693 21.1591 114.339 21.4072 114.839 21.9034C115.343 22.3996 115.594 23.1477 115.594 24.1477V30H113.896V24.3068C113.896 23.7159 113.735 23.2879 113.413 23.0227C113.091 22.7576 112.706 22.625 112.259 22.625C111.706 22.625 111.276 22.7955 110.969 23.1364C110.663 23.4735 110.509 23.9072 110.509 24.4375V30H108.816V24.1989C108.816 23.7254 108.668 23.3447 108.373 23.0568C108.077 22.7689 107.693 22.625 107.219 22.625C106.897 22.625 106.6 22.7102 106.327 22.8807C106.058 23.0473 105.841 23.2803 105.674 23.5795C105.511 23.8788 105.43 24.2254 105.43 24.6193V30H103.731Z" fill="#08051E"/>
<rect x="1" y="0.5" width="132" height="47" rx="5.5" stroke="#0A0628"/>
<defs>
<linearGradient id="paint0_linear_577_928" x1="16.5" y1="23.9928" x2="36.4855" y2="23.9928" gradientUnits="userSpaceOnUse">
<stop stop-color="#2AABEE"/>
<stop offset="1" stop-color="#229ED9"/>
</linearGradient>
</defs>
</svg>
