<svg width="76" height="44" viewBox="0 0 76 44" fill="none" xmlns="http://www.w3.org/2000/svg">
<path d="M0.5 8C0.5 3.58172 4.08172 0 8.5 0H67.5C71.9183 0 75.5 3.58172 75.5 8V36C75.5 40.4183 71.9183 44 67.5 44H8.5C4.08172 44 0.5 40.4183 0.5 36V8Z" fill="#605C84"/>
<path d="M23.708 28.24C22.892 28.24 22.156 28.1013 21.5 27.824C20.8493 27.5467 20.3107 27.152 19.884 26.64C19.4627 26.1227 19.188 25.512 19.06 24.808L20.532 24.576C20.7187 25.3013 21.1053 25.8693 21.692 26.28C22.284 26.6853 22.98 26.888 23.78 26.888C24.2973 26.888 24.764 26.808 25.18 26.648C25.6013 26.4827 25.9347 26.248 26.18 25.944C26.4253 25.64 26.548 25.28 26.548 24.864C26.548 24.608 26.5027 24.3893 26.412 24.208C26.3267 24.0213 26.2067 23.864 26.052 23.736C25.9027 23.6027 25.732 23.4907 25.54 23.4C25.348 23.3093 25.148 23.2347 24.94 23.176L22.004 22.304C21.684 22.208 21.3747 22.088 21.076 21.944C20.7773 21.7947 20.5107 21.6107 20.276 21.392C20.0413 21.168 19.8547 20.9013 19.716 20.592C19.5773 20.2773 19.508 19.9067 19.508 19.48C19.508 18.7973 19.684 18.216 20.036 17.736C20.3933 17.2507 20.876 16.88 21.484 16.624C22.092 16.368 22.7773 16.2427 23.54 16.248C24.3133 16.2533 25.004 16.392 25.612 16.664C26.2253 16.9307 26.732 17.3147 27.132 17.816C27.5373 18.3173 27.8093 18.9173 27.948 19.616L26.436 19.88C26.356 19.4107 26.1773 19.008 25.9 18.672C25.628 18.3307 25.2867 18.0693 24.876 17.888C24.4653 17.7013 24.0147 17.6053 23.524 17.6C23.0547 17.5947 22.6307 17.6693 22.252 17.824C21.8733 17.9787 21.572 18.1947 21.348 18.472C21.124 18.744 21.012 19.0587 21.012 19.416C21.012 19.768 21.1133 20.0533 21.316 20.272C21.5187 20.4853 21.7667 20.656 22.06 20.784C22.3587 20.9067 22.6493 21.008 22.932 21.088L25.124 21.72C25.3747 21.7893 25.6627 21.8853 25.988 22.008C26.3187 22.1307 26.6387 22.304 26.948 22.528C27.2573 22.7467 27.5133 23.04 27.716 23.408C27.9187 23.7707 28.02 24.2293 28.02 24.784C28.02 25.3387 27.908 25.832 27.684 26.264C27.4653 26.696 27.1587 27.0587 26.764 27.352C26.3693 27.64 25.9107 27.8587 25.388 28.008C24.8653 28.1627 24.3053 28.24 23.708 28.24ZM33.4421 28.24C32.5941 28.24 31.8528 28.0533 31.2181 27.68C30.5888 27.3013 30.0981 26.776 29.7461 26.104C29.3941 25.4267 29.2181 24.6373 29.2181 23.736C29.2181 22.792 29.3915 21.976 29.7381 21.288C30.0848 20.5947 30.5675 20.0613 31.1861 19.688C31.8101 19.3093 32.5408 19.12 33.3781 19.12C34.2475 19.12 34.9861 19.32 35.5941 19.72C36.2075 20.12 36.6661 20.6907 36.9701 21.432C37.2795 22.1733 37.4128 23.056 37.3701 24.08H35.9301V23.568C35.9141 22.5067 35.6981 21.7147 35.2821 21.192C34.8661 20.664 34.2475 20.4 33.4261 20.4C32.5461 20.4 31.8768 20.6827 31.4181 21.248C30.9595 21.8133 30.7301 22.624 30.7301 23.68C30.7301 24.6987 30.9595 25.488 31.4181 26.048C31.8768 26.608 32.5301 26.888 33.3781 26.888C33.9488 26.888 34.4448 26.7573 34.8661 26.496C35.2875 26.2347 35.6181 25.8587 35.8581 25.368L37.2261 25.84C36.8901 26.6027 36.3835 27.1947 35.7061 27.616C35.0341 28.032 34.2795 28.24 33.4421 28.24ZM30.2501 24.08V22.936H36.6341V24.08H30.2501ZM45.0689 28V23.672C45.0689 23.2613 45.0315 22.8667 44.9569 22.488C44.8875 22.1093 44.7622 21.7707 44.5809 21.472C44.4049 21.168 44.1649 20.928 43.8609 20.752C43.5622 20.576 43.1835 20.488 42.7249 20.488C42.3675 20.488 42.0422 20.5493 41.7489 20.672C41.4609 20.7893 41.2129 20.9707 41.0049 21.216C40.7969 21.4613 40.6342 21.7707 40.5169 22.144C40.4049 22.512 40.3489 22.9467 40.3489 23.448L39.4129 23.16C39.4129 22.3227 39.5622 21.6053 39.8609 21.008C40.1649 20.4053 40.5889 19.944 41.1329 19.624C41.6822 19.2987 42.3275 19.136 43.0689 19.136C43.6289 19.136 44.1062 19.224 44.5009 19.4C44.8955 19.576 45.2235 19.8107 45.4849 20.104C45.7462 20.392 45.9515 20.7173 46.1009 21.08C46.2502 21.4373 46.3542 21.8027 46.4129 22.176C46.4769 22.544 46.5089 22.8933 46.5089 23.224V28H45.0689ZM38.9089 28V19.36H40.1889V21.672H40.3489V28H38.9089ZM51.9026 28.24C51.0973 28.24 50.4066 28.04 49.8306 27.64C49.2546 27.2347 48.8093 26.688 48.4946 26C48.1853 25.312 48.0306 24.536 48.0306 23.672C48.0306 22.808 48.1853 22.032 48.4946 21.344C48.8093 20.656 49.2546 20.1147 49.8306 19.72C50.4066 19.32 51.0946 19.12 51.8946 19.12C52.7106 19.12 53.396 19.3173 53.9506 19.712C54.5053 20.1067 54.924 20.648 55.2066 21.336C55.4946 22.024 55.6386 22.8027 55.6386 23.672C55.6386 24.5307 55.4946 25.3067 55.2066 26C54.924 26.688 54.5053 27.2347 53.9506 27.64C53.396 28.04 52.7133 28.24 51.9026 28.24ZM52.0786 26.936C52.66 26.936 53.1373 26.7973 53.5106 26.52C53.884 26.2373 54.1586 25.8507 54.3346 25.36C54.516 24.864 54.6066 24.3013 54.6066 23.672C54.6066 23.032 54.516 22.4693 54.3346 21.984C54.1586 21.4933 53.8866 21.112 53.5186 20.84C53.1506 20.5627 52.684 20.424 52.1186 20.424C51.532 20.424 51.0466 20.568 50.6626 20.856C50.284 21.144 50.0013 21.5333 49.8146 22.024C49.6333 22.5147 49.5426 23.064 49.5426 23.672C49.5426 24.2853 49.636 24.84 49.8226 25.336C50.0093 25.8267 50.2893 26.216 50.6626 26.504C51.0413 26.792 51.5133 26.936 52.0786 26.936ZM54.6066 28V21.64H54.4466V16.48H55.8786V28H54.6066Z" fill="white"/>
</svg>
