<svg width="142" height="48" viewBox="0 0 142 48" fill="none" xmlns="http://www.w3.org/2000/svg">
<g clip-path="url(#clip0_577_918)">
<path d="M40.5 23.9993C40.5 17.3719 35.1274 11.9993 28.5 11.9993C21.8726 11.9993 16.5 17.3719 16.5 23.9993C16.5 29.9888 20.8882 34.9533 26.625 35.8535V27.468H23.5781V23.9993H26.625V21.3555C26.625 18.348 28.4165 16.6868 31.1576 16.6868C32.4705 16.6868 33.8438 16.9212 33.8438 16.9212V19.8743H32.3306C30.8399 19.8743 30.375 20.7993 30.375 21.7483V23.9993H33.7031L33.1711 27.468H30.375V35.8535C36.1118 34.9533 40.5 29.9888 40.5 23.9993Z" fill="#1877F2"/>
<path d="M33.1711 27.4688L33.7031 24H30.375V21.749C30.375 20.8 30.8399 19.875 32.3306 19.875H33.8438V16.9219C33.8438 16.9219 32.4705 16.6875 31.1576 16.6875C28.4165 16.6875 26.625 18.3487 26.625 21.3562V24H23.5781V27.4688H26.625V35.8542C27.2359 35.9501 27.8621 36 28.5 36C29.1379 36 29.7641 35.9501 30.375 35.8542V27.4688H33.1711Z" fill="white"/>
</g>
<path d="M49.7784 30V18.3636H56.9943V19.875H51.5341V23.4205H56.4773V24.9261H51.5341V30H49.7784ZM61.6856 30.1932C61.1325 30.1932 60.6325 30.0909 60.1856 29.8864C59.7386 29.678 59.3844 29.3769 59.1231 28.983C58.8655 28.589 58.7367 28.1061 58.7367 27.5341C58.7367 27.0417 58.8314 26.6364 59.0208 26.3182C59.2102 26 59.4659 25.7481 59.7878 25.5625C60.1098 25.3769 60.4697 25.2367 60.8674 25.142C61.2651 25.0473 61.6704 24.9754 62.0833 24.9261C62.606 24.8655 63.0303 24.8163 63.356 24.7784C63.6818 24.7367 63.9185 24.6705 64.0662 24.5795C64.214 24.4886 64.2878 24.3409 64.2878 24.1364V24.0966C64.2878 23.6004 64.1477 23.2159 63.8674 22.9432C63.5909 22.6705 63.178 22.5341 62.6287 22.5341C62.0568 22.5341 61.606 22.661 61.2765 22.9148C60.9507 23.1648 60.7253 23.4432 60.6003 23.75L59.0037 23.3864C59.1931 22.8561 59.4697 22.428 59.8333 22.1023C60.2007 21.7727 60.6231 21.5341 61.1003 21.3864C61.5776 21.2348 62.0795 21.1591 62.606 21.1591C62.9545 21.1591 63.3238 21.2008 63.714 21.2841C64.1079 21.3636 64.4753 21.5114 64.8162 21.7273C65.1609 21.9432 65.4431 22.2519 65.6628 22.6534C65.8825 23.0511 65.9924 23.5682 65.9924 24.2045V30H64.3333V28.8068H64.2651C64.1553 29.0265 63.9905 29.2424 63.7708 29.4545C63.5511 29.6667 63.2689 29.8428 62.9242 29.983C62.5795 30.1231 62.1666 30.1932 61.6856 30.1932ZM62.0549 28.8295C62.5246 28.8295 62.9261 28.7367 63.2594 28.5511C63.5966 28.3655 63.8522 28.1231 64.0265 27.8239C64.2045 27.5208 64.2935 27.197 64.2935 26.8523V25.7273C64.2329 25.7879 64.1155 25.8447 63.9412 25.8977C63.7708 25.947 63.5757 25.9905 63.356 26.0284C63.1363 26.0625 62.9223 26.0947 62.714 26.125C62.5056 26.1515 62.3314 26.1742 62.1912 26.1932C61.8617 26.2348 61.5606 26.3049 61.2878 26.4034C61.0189 26.5019 60.803 26.6439 60.6401 26.8295C60.481 27.0114 60.4015 27.2538 60.4015 27.5568C60.4015 27.9773 60.5568 28.2955 60.8674 28.5114C61.178 28.7235 61.5738 28.8295 62.0549 28.8295ZM72.0913 30.1761C71.2466 30.1761 70.5193 29.9848 69.9095 29.6023C69.3034 29.2159 68.8375 28.6837 68.5118 28.0057C68.186 27.3277 68.0231 26.5511 68.0231 25.6761C68.0231 24.7898 68.1898 24.0076 68.5231 23.3295C68.8565 22.6477 69.3262 22.1155 69.9322 21.733C70.5383 21.3504 71.2523 21.1591 72.0743 21.1591C72.7371 21.1591 73.328 21.2822 73.847 21.5284C74.3659 21.7708 74.7845 22.1117 75.1027 22.5511C75.4246 22.9905 75.6159 23.5038 75.6765 24.0909H74.0231C73.9322 23.6818 73.7239 23.3295 73.3981 23.0341C73.0762 22.7386 72.6443 22.5909 72.1027 22.5909C71.6292 22.5909 71.2144 22.7159 70.8584 22.9659C70.5061 23.2121 70.2315 23.5644 70.0345 24.0227C69.8375 24.4773 69.739 25.0152 69.739 25.6364C69.739 26.2727 69.8356 26.822 70.0288 27.2841C70.222 27.7462 70.4947 28.1042 70.847 28.358C71.203 28.6117 71.6216 28.7386 72.1027 28.7386C72.4246 28.7386 72.7163 28.6799 72.9777 28.5625C73.2428 28.4413 73.4644 28.2689 73.6424 28.0455C73.8243 27.822 73.9512 27.553 74.0231 27.2386H75.6765C75.6159 27.803 75.4322 28.3068 75.1254 28.75C74.8186 29.1932 74.4076 29.5417 73.8924 29.7955C73.3811 30.0492 72.7807 30.1761 72.0913 30.1761ZM81.4147 30.1761C80.5548 30.1761 79.8143 29.9924 79.1931 29.625C78.5756 29.2538 78.0984 28.733 77.7612 28.0625C77.4279 27.3883 77.2612 26.5985 77.2612 25.6932C77.2612 24.7992 77.4279 24.0114 77.7612 23.3295C78.0984 22.6477 78.5681 22.1155 79.1703 21.733C79.7764 21.3504 80.4847 21.1591 81.2953 21.1591C81.7878 21.1591 82.265 21.2405 82.7272 21.4034C83.1893 21.5663 83.6041 21.822 83.9715 22.1705C84.3389 22.5189 84.6287 22.9716 84.8408 23.5284C85.0529 24.0814 85.159 24.7538 85.159 25.5455V26.1477H78.2215V24.875H83.4942C83.4942 24.428 83.4033 24.0322 83.2215 23.6875C83.0397 23.339 82.784 23.0644 82.4544 22.8636C82.1287 22.6629 81.7461 22.5625 81.3067 22.5625C80.8294 22.5625 80.4128 22.6799 80.0567 22.9148C79.7044 23.1458 79.4317 23.4489 79.2385 23.8239C79.0491 24.1951 78.9544 24.5985 78.9544 25.0341V26.0284C78.9544 26.6117 79.0567 27.108 79.2612 27.517C79.4696 27.9261 79.7594 28.2386 80.1306 28.4545C80.5018 28.6667 80.9355 28.7727 81.4317 28.7727C81.7537 28.7727 82.0472 28.7273 82.3124 28.6364C82.5775 28.5417 82.8067 28.4015 82.9999 28.2159C83.1931 28.0303 83.3408 27.8011 83.4431 27.5284L85.051 27.8182C84.9222 28.2917 84.6912 28.7064 84.3578 29.0625C84.0283 29.4148 83.6135 29.6894 83.1135 29.8864C82.6173 30.0795 82.051 30.1761 81.4147 30.1761ZM87.3403 30V18.3636H89.0391V22.6875H89.1414C89.2399 22.5057 89.382 22.2955 89.5676 22.0568C89.7532 21.8182 90.0107 21.6098 90.3403 21.4318C90.6698 21.25 91.1054 21.1591 91.6471 21.1591C92.3516 21.1591 92.9804 21.3371 93.5335 21.6932C94.0865 22.0492 94.5202 22.5625 94.8346 23.233C95.1528 23.9034 95.3119 24.7102 95.3119 25.6534C95.3119 26.5966 95.1547 27.4053 94.8403 28.0795C94.5259 28.75 94.0941 29.267 93.5448 29.6307C92.9956 29.9905 92.3687 30.1705 91.6641 30.1705C91.1338 30.1705 90.7001 30.0814 90.363 29.9034C90.0297 29.7254 89.7683 29.517 89.5789 29.2784C89.3895 29.0398 89.2437 28.8277 89.1414 28.642H88.9994V30H87.3403ZM89.0051 25.6364C89.0051 26.25 89.0941 26.7879 89.2721 27.25C89.4501 27.7121 89.7077 28.0739 90.0448 28.3352C90.382 28.5928 90.7948 28.7216 91.2835 28.7216C91.791 28.7216 92.2153 28.5871 92.5562 28.3182C92.8971 28.0455 93.1547 27.6761 93.3289 27.2102C93.507 26.7443 93.596 26.2197 93.596 25.6364C93.596 25.0606 93.5088 24.5436 93.3346 24.0852C93.1641 23.6269 92.9066 23.2652 92.5619 23C92.221 22.7348 91.7948 22.6023 91.2835 22.6023C90.791 22.6023 90.3744 22.7292 90.0335 22.983C89.6963 23.2367 89.4407 23.5909 89.2664 24.0455C89.0922 24.5 89.0051 25.0303 89.0051 25.6364ZM101.056 30.1761C100.237 30.1761 99.5235 29.9886 98.9136 29.6136C98.3038 29.2386 97.8303 28.714 97.4932 28.0398C97.1561 27.3655 96.9875 26.5777 96.9875 25.6761C96.9875 24.7708 97.1561 23.9792 97.4932 23.3011C97.8303 22.6231 98.3038 22.0966 98.9136 21.7216C99.5235 21.3466 100.237 21.1591 101.056 21.1591C101.874 21.1591 102.588 21.3466 103.198 21.7216C103.808 22.0966 104.281 22.6231 104.618 23.3011C104.955 23.9792 105.124 24.7708 105.124 25.6761C105.124 26.5777 104.955 27.3655 104.618 28.0398C104.281 28.714 103.808 29.2386 103.198 29.6136C102.588 29.9886 101.874 30.1761 101.056 30.1761ZM101.061 28.75C101.592 28.75 102.031 28.6098 102.38 28.3295C102.728 28.0492 102.986 27.6761 103.152 27.2102C103.323 26.7443 103.408 26.2311 103.408 25.6705C103.408 25.1136 103.323 24.6023 103.152 24.1364C102.986 23.6667 102.728 23.2898 102.38 23.0057C102.031 22.7216 101.592 22.5795 101.061 22.5795C100.527 22.5795 100.084 22.7216 99.7318 23.0057C99.3833 23.2898 99.1239 23.6667 98.9534 24.1364C98.7867 24.6023 98.7034 25.1136 98.7034 25.6705C98.7034 26.2311 98.7867 26.7443 98.9534 27.2102C99.1239 27.6761 99.3833 28.0492 99.7318 28.3295C100.084 28.6098 100.527 28.75 101.061 28.75ZM110.856 30.1761C110.038 30.1761 109.324 29.9886 108.714 29.6136C108.104 29.2386 107.631 28.714 107.294 28.0398C106.957 27.3655 106.788 26.5777 106.788 25.6761C106.788 24.7708 106.957 23.9792 107.294 23.3011C107.631 22.6231 108.104 22.0966 108.714 21.7216C109.324 21.3466 110.038 21.1591 110.856 21.1591C111.674 21.1591 112.389 21.3466 112.998 21.7216C113.608 22.0966 114.082 22.6231 114.419 23.3011C114.756 23.9792 114.924 24.7708 114.924 25.6761C114.924 26.5777 114.756 27.3655 114.419 28.0398C114.082 28.714 113.608 29.2386 112.998 29.6136C112.389 29.9886 111.674 30.1761 110.856 30.1761ZM110.862 28.75C111.392 28.75 111.832 28.6098 112.18 28.3295C112.529 28.0492 112.786 27.6761 112.953 27.2102C113.123 26.7443 113.209 26.2311 113.209 25.6705C113.209 25.1136 113.123 24.6023 112.953 24.1364C112.786 23.6667 112.529 23.2898 112.18 23.0057C111.832 22.7216 111.392 22.5795 110.862 22.5795C110.328 22.5795 109.885 22.7216 109.532 23.0057C109.184 23.2898 108.924 23.6667 108.754 24.1364C108.587 24.6023 108.504 25.1136 108.504 25.6705C108.504 26.2311 108.587 26.7443 108.754 27.2102C108.924 27.6761 109.184 28.0492 109.532 28.3295C109.885 28.6098 110.328 28.75 110.862 28.75ZM118.543 27.0398L118.532 24.9659H118.827L122.305 21.2727H124.339L120.373 25.4773H120.106L118.543 27.0398ZM116.981 30V18.3636H118.68V30H116.981ZM122.492 30L119.367 25.8523L120.538 24.6648L124.577 30H122.492Z" fill="#08051E"/>
<rect x="1" y="0.5" width="140" height="47" rx="5.5" stroke="#0A0628"/>
<defs>
<clipPath id="clip0_577_918">
<rect width="24" height="24" fill="white" transform="translate(16.5 12)"/>
</clipPath>
</defs>
</svg>
