<svg width="158" height="60" viewBox="0 0 158 60" fill="none" xmlns="http://www.w3.org/2000/svg">
<g clip-path="url(#clip0_607_4325)">
<path d="M41.6401 26.8422C41.0804 24.9123 40.0621 23.1465 38.6721 21.6954C37.2821 20.2443 35.5617 19.151 33.6577 18.5089C31.7766 17.9613 29.7993 17.8268 27.8614 18.1144C25.9234 18.4021 24.0705 19.1052 22.4296 20.1755C22.2946 20.3109 22.1252 20.4068 21.9398 20.4532C21.7544 20.4996 21.5598 20.4945 21.377 20.4387C21.0084 20.3193 20.6763 20.108 20.4121 19.8247C20.2197 19.4776 20.1575 19.0732 20.2366 18.6843C20.2869 18.4977 20.3751 18.3234 20.4959 18.1724C20.6167 18.0215 20.7673 17.8971 20.9384 17.8071C25.5875 15.0878 30.1489 14.3861 34.5349 15.7896C36.6942 16.5078 38.6656 17.6998 40.3047 19.2782C41.9439 20.8567 43.2094 22.7817 44.0085 24.9124H49.8857C48.684 20.172 45.7871 16.0362 41.7427 13.287C37.6983 10.5377 32.7868 9.3655 27.9368 9.992C23.0868 10.6185 18.6343 13.0003 15.4214 16.687C12.2084 20.3738 10.4575 25.11 10.4998 30.0001C10.4998 30.7896 10.5875 31.4913 10.5875 32.2808H18.0436C18.3284 32.2647 18.6107 32.3415 18.848 32.4997C19.0853 32.6579 19.2648 32.8889 19.3594 33.158C19.9323 35.0812 20.9553 36.8403 22.3434 38.2895C23.7316 39.7387 25.445 40.8363 27.3419 41.4913C29.223 42.0389 31.2002 42.1734 33.1382 41.8858C35.0761 41.5981 36.929 40.895 38.5699 39.8247C38.705 39.6894 38.8743 39.5934 39.0597 39.547C39.2452 39.5007 39.4398 39.5057 39.6226 39.5615C39.9911 39.6809 40.3232 39.8922 40.5875 40.1755C40.7799 40.5227 40.8421 40.927 40.7629 41.3159C40.7127 41.5026 40.6244 41.6768 40.5036 41.8278C40.3829 41.9787 40.2323 42.1031 40.0612 42.1931C37.417 43.9723 34.3008 44.9193 31.1138 44.9124C29.5386 44.9005 27.9732 44.6642 26.4647 44.2106C24.2963 43.5096 22.3162 42.3236 20.6747 40.7429C19.0332 39.1622 17.7734 37.2282 16.991 35.0878H11.2015C12.4696 39.7502 15.3828 43.796 19.4024 46.4771C23.4221 49.1583 28.2765 50.2936 33.0683 49.6732C37.8601 49.0529 42.2653 46.7188 45.4696 43.1023C48.674 39.4859 50.4608 34.8317 50.4998 30.0001C50.5161 29.268 50.4868 28.5356 50.4121 27.8071H43.0436C42.7445 27.7874 42.4563 27.6873 42.2093 27.5175C41.9623 27.3477 41.7657 27.1144 41.6401 26.8422Z" fill="white"/>
<path d="M30.5841 38.7496C32.311 38.733 33.9944 38.2057 35.4222 37.2342C36.8501 36.2627 37.9585 34.8904 38.6078 33.2902C39.2572 31.6899 39.4185 29.9333 39.0715 28.2416C38.7244 26.5498 37.8845 24.9986 36.6575 23.7833C35.4305 22.568 33.8713 21.7429 32.1763 21.4121C30.4813 21.0812 28.7263 21.2593 27.1324 21.924C25.5384 22.5887 24.1768 23.7102 23.219 25.1472C22.2612 26.5843 21.7501 28.2726 21.75 29.9996C21.7499 31.1558 21.979 32.3005 22.424 33.3676C22.869 34.4347 23.521 35.4031 24.3425 36.2167C25.1639 37.0303 26.1385 37.6731 27.2098 38.1078C28.2811 38.5426 29.428 38.7607 30.5841 38.7496Z" fill="#120B48"/>
</g>
<path d="M59.5114 35.5V23.8636H61.9716V28.6648H66.9659V23.8636H69.4205V35.5H66.9659V30.6932H61.9716V35.5H59.5114ZM75.3807 35.6705C74.483 35.6705 73.7102 35.4886 73.0625 35.125C72.4186 34.7576 71.9223 34.2386 71.5739 33.5682C71.2254 32.8939 71.0511 32.0966 71.0511 31.1761C71.0511 30.2784 71.2254 29.4905 71.5739 28.8125C71.9223 28.1345 72.4129 27.6061 73.0455 27.2273C73.6818 26.8485 74.428 26.6591 75.2841 26.6591C75.8598 26.6591 76.3958 26.7519 76.892 26.9375C77.392 27.1193 77.8277 27.3939 78.1989 27.7614C78.5739 28.1288 78.8655 28.5909 79.0739 29.1477C79.2822 29.7008 79.3864 30.3485 79.3864 31.0909V31.7557H72.017V30.2557H77.108C77.108 29.9072 77.0322 29.5985 76.8807 29.3295C76.7292 29.0606 76.5189 28.8504 76.25 28.6989C75.9848 28.5436 75.6761 28.4659 75.3239 28.4659C74.9564 28.4659 74.6307 28.5511 74.3466 28.7216C74.0663 28.8883 73.8466 29.1136 73.6875 29.3977C73.5284 29.678 73.447 29.9905 73.4432 30.3352V31.7614C73.4432 32.1932 73.5227 32.5663 73.6818 32.8807C73.8447 33.1951 74.0739 33.4375 74.3693 33.608C74.6648 33.7784 75.0152 33.8636 75.4205 33.8636C75.6894 33.8636 75.9356 33.8258 76.1591 33.75C76.3826 33.6742 76.5739 33.5606 76.733 33.4091C76.892 33.2576 77.0133 33.072 77.0966 32.8523L79.3352 33C79.2216 33.5379 78.9886 34.0076 78.6364 34.4091C78.2879 34.8068 77.8371 35.1174 77.2841 35.3409C76.7348 35.5606 76.1004 35.6705 75.3807 35.6705ZM83.3864 23.8636V35.5H80.9659V23.8636H83.3864ZM85.3253 38.7727V26.7727H87.7116V28.2386H87.8196C87.9257 28.0038 88.0791 27.7652 88.2798 27.5227C88.4844 27.2765 88.7495 27.072 89.0753 26.9091C89.4048 26.7424 89.8139 26.6591 90.3026 26.6591C90.9389 26.6591 91.526 26.8258 92.0639 27.1591C92.6018 27.4886 93.0317 27.9867 93.3537 28.6534C93.6757 29.3163 93.8366 30.1477 93.8366 31.1477C93.8366 32.1212 93.6795 32.9432 93.3651 33.6136C93.0545 34.2803 92.6302 34.786 92.0923 35.1307C91.5582 35.4716 90.9598 35.642 90.2969 35.642C89.8272 35.642 89.4276 35.5644 89.098 35.4091C88.7723 35.2538 88.5052 35.0587 88.2969 34.8239C88.0885 34.5852 87.9295 34.3447 87.8196 34.1023H87.7457V38.7727H85.3253ZM87.6946 31.1364C87.6946 31.6553 87.7666 32.108 87.9105 32.4943C88.0545 32.8807 88.2628 33.1818 88.5355 33.3977C88.8082 33.6098 89.1397 33.7159 89.5298 33.7159C89.9238 33.7159 90.2571 33.608 90.5298 33.392C90.8026 33.1723 91.009 32.8693 91.1491 32.483C91.2931 32.0928 91.3651 31.6439 91.3651 31.1364C91.3651 30.6326 91.295 30.1894 91.1548 29.8068C91.0147 29.4242 90.8082 29.125 90.5355 28.9091C90.2628 28.6932 89.9276 28.5852 89.5298 28.5852C89.1359 28.5852 88.8026 28.6894 88.5298 28.8977C88.2609 29.1061 88.0545 29.4015 87.9105 29.7841C87.7666 30.1667 87.6946 30.6174 87.6946 31.1364ZM95.4957 23.8636H98.5298L101.734 31.6818H101.871L105.075 23.8636H108.109V35.5H105.723V27.9261H105.626L102.615 35.4432H100.99L97.9787 27.8977H97.8821V35.5H95.4957V23.8636ZM114.068 35.6705C113.17 35.6705 112.398 35.4886 111.75 35.125C111.106 34.7576 110.61 34.2386 110.261 33.5682C109.913 32.8939 109.739 32.0966 109.739 31.1761C109.739 30.2784 109.913 29.4905 110.261 28.8125C110.61 28.1345 111.1 27.6061 111.733 27.2273C112.369 26.8485 113.116 26.6591 113.972 26.6591C114.547 26.6591 115.083 26.7519 115.58 26.9375C116.08 27.1193 116.515 27.3939 116.886 27.7614C117.261 28.1288 117.553 28.5909 117.761 29.1477C117.97 29.7008 118.074 30.3485 118.074 31.0909V31.7557H110.705V30.2557H115.795C115.795 29.9072 115.72 29.5985 115.568 29.3295C115.417 29.0606 115.206 28.8504 114.938 28.6989C114.672 28.5436 114.364 28.4659 114.011 28.4659C113.644 28.4659 113.318 28.5511 113.034 28.7216C112.754 28.8883 112.534 29.1136 112.375 29.3977C112.216 29.678 112.134 29.9905 112.131 30.3352V31.7614C112.131 32.1932 112.21 32.5663 112.369 32.8807C112.532 33.1951 112.761 33.4375 113.057 33.608C113.352 33.7784 113.703 33.8636 114.108 33.8636C114.377 33.8636 114.623 33.8258 114.847 33.75C115.07 33.6742 115.261 33.5606 115.42 33.4091C115.58 33.2576 115.701 33.072 115.784 32.8523L118.023 33C117.909 33.5379 117.676 34.0076 117.324 34.4091C116.975 34.8068 116.525 35.1174 115.972 35.3409C115.422 35.5606 114.788 35.6705 114.068 35.6705ZM130.392 29.6818C130.392 30.9508 130.152 32.0303 129.67 32.9205C129.193 33.8106 128.542 34.4905 127.716 34.9602C126.894 35.4261 125.97 35.6591 124.943 35.6591C123.909 35.6591 122.981 35.4242 122.159 34.9545C121.337 34.4848 120.688 33.8049 120.21 32.9148C119.733 32.0246 119.494 30.947 119.494 29.6818C119.494 28.4129 119.733 27.3333 120.21 26.4432C120.688 25.553 121.337 24.875 122.159 24.4091C122.981 23.9394 123.909 23.7045 124.943 23.7045C125.97 23.7045 126.894 23.9394 127.716 24.4091C128.542 24.875 129.193 25.553 129.67 26.4432C130.152 27.3333 130.392 28.4129 130.392 29.6818ZM127.898 29.6818C127.898 28.8598 127.775 28.1667 127.528 27.6023C127.286 27.0379 126.943 26.6098 126.5 26.3182C126.057 26.0265 125.538 25.8807 124.943 25.8807C124.348 25.8807 123.83 26.0265 123.386 26.3182C122.943 26.6098 122.598 27.0379 122.352 27.6023C122.11 28.1667 121.989 28.8598 121.989 29.6818C121.989 30.5038 122.11 31.197 122.352 31.7614C122.598 32.3258 122.943 32.7538 123.386 33.0455C123.83 33.3371 124.348 33.483 124.943 33.483C125.538 33.483 126.057 33.3371 126.5 33.0455C126.943 32.7538 127.286 32.3258 127.528 31.7614C127.775 31.197 127.898 30.5038 127.898 29.6818ZM137.766 31.7841V26.7727H140.186V35.5H137.862V33.9148H137.771C137.574 34.4261 137.247 34.8371 136.788 35.1477C136.334 35.4583 135.779 35.6136 135.124 35.6136C134.54 35.6136 134.027 35.4811 133.584 35.2159C133.141 34.9508 132.794 34.5739 132.544 34.0852C132.298 33.5966 132.173 33.0114 132.169 32.3295V26.7727H134.589V31.8977C134.593 32.4129 134.732 32.8201 135.004 33.1193C135.277 33.4186 135.643 33.5682 136.101 33.5682C136.393 33.5682 136.665 33.5019 136.919 33.3693C137.173 33.233 137.377 33.0322 137.533 32.767C137.692 32.5019 137.769 32.1742 137.766 31.7841ZM146.764 26.7727V28.5909H141.509V26.7727H146.764ZM142.702 24.6818H145.122V32.8182C145.122 33.0417 145.156 33.2159 145.224 33.3409C145.293 33.4621 145.387 33.5473 145.509 33.5966C145.634 33.6458 145.777 33.6705 145.94 33.6705C146.054 33.6705 146.168 33.661 146.281 33.642C146.395 33.6193 146.482 33.6023 146.543 33.5909L146.923 35.392C146.802 35.4299 146.632 35.4735 146.412 35.5227C146.192 35.5758 145.925 35.608 145.611 35.6193C145.027 35.642 144.516 35.5644 144.077 35.3864C143.641 35.2083 143.302 34.9318 143.06 34.5568C142.817 34.1818 142.698 33.7083 142.702 33.1364V24.6818Z" fill="white"/>
<defs>
<clipPath id="clip0_607_4325">
<rect width="40" height="40" fill="white" transform="translate(10.5 10)"/>
</clipPath>
</defs>
</svg>
