<svg width="151" height="51" viewBox="0 0 151 51" fill="none" xmlns="http://www.w3.org/2000/svg">
<rect x="0.5" width="150" height="51" rx="8" fill="#120B48"/>
<path d="M38.0664 20.28C39.0158 20.28 39.8371 20.4613 40.5304 20.824C41.2238 21.176 41.8104 21.6987 42.2904 22.392L41.1384 23.496C40.7331 22.8773 40.2744 22.4347 39.7624 22.168C39.2611 21.8907 38.6638 21.752 37.9704 21.752C37.4584 21.752 37.0371 21.8213 36.7064 21.96C36.3758 22.0987 36.1304 22.2853 35.9704 22.52C35.8211 22.744 35.7464 23 35.7464 23.288C35.7464 23.6187 35.8584 23.9067 36.0824 24.152C36.3171 24.3973 36.7491 24.5893 37.3784 24.728L39.5224 25.208C40.5464 25.432 41.2718 25.7733 41.6984 26.232C42.1251 26.6907 42.3384 27.272 42.3384 27.976C42.3384 28.6267 42.1624 29.192 41.8104 29.672C41.4584 30.152 40.9678 30.52 40.3384 30.776C39.7198 31.032 38.9891 31.16 38.1464 31.16C37.3998 31.16 36.7278 31.064 36.1304 30.872C35.5331 30.68 35.0104 30.4187 34.5624 30.088C34.1144 29.7573 33.7464 29.3787 33.4584 28.952L34.6424 27.768C34.8664 28.1413 35.1491 28.4773 35.4904 28.776C35.8318 29.064 36.2264 29.288 36.6744 29.448C37.1331 29.608 37.6398 29.688 38.1944 29.688C38.6851 29.688 39.1064 29.6293 39.4584 29.512C39.8211 29.3947 40.0931 29.224 40.2744 29C40.4664 28.7653 40.5624 28.488 40.5624 28.168C40.5624 27.8587 40.4558 27.5867 40.2424 27.352C40.0398 27.1173 39.6558 26.936 39.0904 26.808L36.7704 26.28C36.1304 26.1413 35.6024 25.944 35.1864 25.688C34.7704 25.432 34.4611 25.1227 34.2584 24.76C34.0558 24.3867 33.9544 23.9707 33.9544 23.512C33.9544 22.9147 34.1144 22.376 34.4344 21.896C34.7651 21.4053 35.2398 21.016 35.8584 20.728C36.4771 20.4293 37.2131 20.28 38.0664 20.28ZM48.9911 25.864C48.9911 25.3307 48.8417 24.92 48.5431 24.632C48.2551 24.3333 47.8551 24.184 47.3431 24.184C46.8631 24.184 46.4524 24.296 46.1111 24.52C45.7697 24.744 45.5191 25.1067 45.3591 25.608L43.9191 25C44.1217 24.3493 44.5164 23.8267 45.1031 23.432C45.7004 23.0373 46.4684 22.84 47.4071 22.84C48.0471 22.84 48.6124 22.9467 49.1031 23.16C49.5937 23.3627 49.9777 23.672 50.2551 24.088C50.5431 24.504 50.6871 25.0373 50.6871 25.688V29.256C50.6871 29.6507 50.8844 29.848 51.2791 29.848C51.4711 29.848 51.6577 29.8213 51.8391 29.768L51.7431 30.952C51.4977 31.0693 51.1884 31.128 50.8151 31.128C50.4737 31.128 50.1644 31.0693 49.8871 30.952C49.6204 30.824 49.4071 30.6373 49.2471 30.392C49.0977 30.136 49.0231 29.8213 49.0231 29.448V29.336L49.3751 29.32C49.2791 29.736 49.0817 30.0827 48.7831 30.36C48.4844 30.6267 48.1377 30.8293 47.7431 30.968C47.3484 31.096 46.9484 31.16 46.5431 31.16C46.0417 31.16 45.5884 31.08 45.1831 30.92C44.7884 30.76 44.4737 30.52 44.2391 30.2C44.0151 29.8693 43.9031 29.464 43.9031 28.984C43.9031 28.3867 44.0951 27.896 44.4791 27.512C44.8737 27.128 45.4284 26.8667 46.1431 26.728L49.2471 26.12L49.2311 27.32L46.9751 27.784C46.5271 27.8693 46.1911 27.992 45.9671 28.152C45.7431 28.312 45.6311 28.5467 45.6311 28.856C45.6311 29.1547 45.7431 29.3947 45.9671 29.576C46.2017 29.7467 46.5111 29.832 46.8951 29.832C47.1617 29.832 47.4177 29.8 47.6631 29.736C47.9191 29.672 48.1484 29.5707 48.3511 29.432C48.5537 29.2827 48.7084 29.096 48.8151 28.872C48.9324 28.6373 48.9911 28.36 48.9911 28.04V25.864ZM58.4748 23H60.2668L57.0828 31H55.2108L52.0108 23H53.8828L56.1548 29.512L58.4748 23ZM65.1996 31.16C64.3996 31.16 63.6956 30.9947 63.0876 30.664C62.4796 30.3333 62.0049 29.8587 61.6636 29.24C61.3329 28.6107 61.1676 27.864 61.1676 27C61.1676 26.136 61.3329 25.3947 61.6636 24.776C62.0049 24.1467 62.4742 23.6667 63.0716 23.336C63.6689 23.0053 64.3462 22.84 65.1036 22.84C65.8822 22.84 66.5436 23 67.0876 23.32C67.6316 23.64 68.0476 24.0773 68.3356 24.632C68.6236 25.1867 68.7676 25.816 68.7676 26.52C68.7676 26.712 68.7622 26.8933 68.7516 27.064C68.7409 27.2347 68.7249 27.384 68.7036 27.512H62.2716V26.2H67.9516L67.1036 26.456C67.1036 25.7307 66.9222 25.176 66.5596 24.792C66.1969 24.3973 65.7009 24.2 65.0716 24.2C64.6129 24.2 64.2129 24.3067 63.8716 24.52C63.5302 24.7333 63.2689 25.0533 63.0876 25.48C62.9062 25.896 62.8156 26.408 62.8156 27.016C62.8156 27.6133 62.9116 28.12 63.1036 28.536C63.2956 28.952 63.5676 29.2667 63.9196 29.48C64.2716 29.6933 64.6876 29.8 65.1676 29.8C65.7009 29.8 66.1329 29.6987 66.4636 29.496C66.7942 29.2933 67.0556 29.0107 67.2476 28.648L68.6076 29.288C68.4156 29.672 68.1542 30.008 67.8236 30.296C67.5036 30.5733 67.1196 30.7867 66.6716 30.936C66.2236 31.0853 65.7329 31.16 65.1996 31.16ZM84.4811 20.44L80.5611 31H78.5611L74.6411 20.44H76.4651L78.9291 27.464L79.5691 29.56L80.2091 27.48L82.6731 20.44H84.4811ZM87.0279 21.656C86.6546 21.656 86.3666 21.5653 86.1639 21.384C85.9719 21.192 85.8759 20.9253 85.8759 20.584C85.8759 20.2427 85.9719 19.9813 86.1639 19.8C86.3666 19.6187 86.6546 19.528 87.0279 19.528C87.3906 19.528 87.6679 19.6187 87.8599 19.8C88.0626 19.9813 88.1639 20.2427 88.1639 20.584C88.1639 20.9253 88.0626 21.192 87.8599 21.384C87.6679 21.5653 87.3906 21.656 87.0279 21.656ZM87.8759 23V31H86.1639V23H87.8759ZM93.6266 31.16C92.9652 31.16 92.3626 30.9947 91.8186 30.664C91.2852 30.3333 90.8639 29.8587 90.5546 29.24C90.2452 28.6213 90.0906 27.88 90.0906 27.016C90.0906 26.12 90.2559 25.3627 90.5866 24.744C90.9172 24.1253 91.3599 23.656 91.9146 23.336C92.4692 23.0053 93.0772 22.84 93.7386 22.84C94.4212 22.84 94.9972 23.0267 95.4666 23.4C95.9359 23.7733 96.2506 24.2587 96.4106 24.856L96.2186 25.032V19.4H97.9306V31H96.4106L96.2826 28.824L96.5066 28.84C96.4319 29.32 96.2559 29.736 95.9786 30.088C95.7012 30.4293 95.3546 30.696 94.9386 30.888C94.5332 31.0693 94.0959 31.16 93.6266 31.16ZM93.9946 29.784C94.4532 29.784 94.8479 29.6667 95.1786 29.432C95.5092 29.1973 95.7652 28.8667 95.9466 28.44C96.1279 28.0133 96.2186 27.5013 96.2186 26.904C96.2186 26.3493 96.1279 25.8747 95.9466 25.48C95.7652 25.0747 95.5092 24.7653 95.1786 24.552C94.8586 24.3387 94.4852 24.232 94.0586 24.232C93.3439 24.232 92.7892 24.4773 92.3946 24.968C91.9999 25.4587 91.8026 26.136 91.8026 27C91.8026 27.864 91.9946 28.5467 92.3786 29.048C92.7626 29.5387 93.3012 29.784 93.9946 29.784ZM104.106 31.16C103.306 31.16 102.602 30.9947 101.994 30.664C101.386 30.3333 100.911 29.8587 100.57 29.24C100.239 28.6107 100.074 27.864 100.074 27C100.074 26.136 100.239 25.3947 100.57 24.776C100.911 24.1467 101.38 23.6667 101.978 23.336C102.575 23.0053 103.252 22.84 104.01 22.84C104.788 22.84 105.45 23 105.994 23.32C106.538 23.64 106.954 24.0773 107.242 24.632C107.53 25.1867 107.674 25.816 107.674 26.52C107.674 26.712 107.668 26.8933 107.658 27.064C107.647 27.2347 107.631 27.384 107.61 27.512H101.178V26.2H106.858L106.01 26.456C106.01 25.7307 105.828 25.176 105.466 24.792C105.103 24.3973 104.607 24.2 103.978 24.2C103.519 24.2 103.119 24.3067 102.778 24.52C102.436 24.7333 102.175 25.0533 101.994 25.48C101.812 25.896 101.722 26.408 101.722 27.016C101.722 27.6133 101.818 28.12 102.01 28.536C102.202 28.952 102.474 29.2667 102.826 29.48C103.178 29.6933 103.594 29.8 104.074 29.8C104.607 29.8 105.039 29.6987 105.37 29.496C105.7 29.2933 105.962 29.0107 106.154 28.648L107.514 29.288C107.322 29.672 107.06 30.008 106.73 30.296C106.41 30.5733 106.026 30.7867 105.578 30.936C105.13 31.0853 104.639 31.16 104.106 31.16ZM113.308 22.84C114.086 22.84 114.774 23.0053 115.372 23.336C115.969 23.6667 116.433 24.1467 116.764 24.776C117.105 25.3947 117.276 26.136 117.276 27C117.276 27.864 117.105 28.6107 116.764 29.24C116.433 29.8587 115.969 30.3333 115.372 30.664C114.774 30.9947 114.086 31.16 113.308 31.16C112.529 31.16 111.841 30.9947 111.244 30.664C110.646 30.3333 110.177 29.8587 109.836 29.24C109.494 28.6107 109.324 27.864 109.324 27C109.324 26.136 109.494 25.3947 109.836 24.776C110.177 24.1467 110.646 23.6667 111.244 23.336C111.841 23.0053 112.529 22.84 113.308 22.84ZM113.308 24.184C112.828 24.184 112.417 24.296 112.076 24.52C111.745 24.7333 111.489 25.048 111.308 25.464C111.126 25.88 111.036 26.392 111.036 27C111.036 27.5973 111.126 28.1093 111.308 28.536C111.489 28.952 111.745 29.272 112.076 29.496C112.417 29.7093 112.828 29.816 113.308 29.816C113.788 29.816 114.193 29.7093 114.524 29.496C114.854 29.272 115.11 28.952 115.292 28.536C115.473 28.1093 115.564 27.5973 115.564 27C115.564 26.392 115.473 25.88 115.292 25.464C115.11 25.048 114.854 24.7333 114.524 24.52C114.193 24.296 113.788 24.184 113.308 24.184Z" fill="#F9F9FF"/>
</svg>
