<svg width="25" height="24" viewBox="0 0 25 24" fill="none" xmlns="http://www.w3.org/2000/svg">
<path d="M12.5 15.25C10.7061 15.25 9.25 13.7939 9.25 12C9.25 10.2061 10.7061 8.75 12.5 8.75C14.2939 8.75 15.75 10.2061 15.75 12C15.75 13.7939 14.2939 15.25 12.5 15.25ZM12.5 9.25C10.9839 9.25 9.75 10.4839 9.75 12C9.75 13.5161 10.9839 14.75 12.5 14.75C14.0161 14.75 15.25 13.5161 15.25 12C15.25 10.4839 14.0161 9.25 12.5 9.25Z" fill="#292D32" stroke="#141414"/>
<path d="M9.79506 21.6259L9.79505 21.6259L9.78974 21.6273C9.28935 21.7623 8.77942 21.6906 8.34725 21.4313L8.34729 21.4312L8.33943 21.4267L6.61942 20.4367L6.61883 20.4364C6.12587 20.1535 5.76895 19.6938 5.61296 19.1306C5.46627 18.565 5.54116 17.9913 5.82369 17.4989L5.82465 17.4972C5.98974 17.2069 6.10884 16.9076 6.156 16.6179C6.20286 16.3301 6.18369 16.0141 6.02135 15.7372C5.71133 15.2083 5.03815 15.03 4.4 15.03C3.21614 15.03 2.25 14.0639 2.25 12.88V11.12C2.25 9.93618 3.21614 8.97004 4.4 8.97004C5.03815 8.97004 5.71133 8.79176 6.02135 8.2629C6.3349 7.72803 6.14497 7.04845 5.82247 6.49909C5.54025 6.00592 5.46658 5.42245 5.61336 4.86799L5.61381 4.86625C5.75952 4.30769 6.11339 3.84907 6.6158 3.56545L6.6158 3.56546L6.61834 3.56401L8.34834 2.57401L8.34837 2.57406L8.35501 2.57013C9.24208 2.04416 10.4272 2.3472 10.9696 3.26453L10.9696 3.26454L10.9713 3.26729L11.0893 3.46398C11.42 4.03416 11.9019 4.47504 12.515 4.47504C13.1294 4.47504 13.6119 4.0324 13.9427 3.46056C13.9427 3.4605 13.9428 3.46045 13.9428 3.46039L14.0513 3.2729C14.0516 3.27253 14.0518 3.27216 14.052 3.27178C14.5945 2.3478 15.777 2.04447 16.6739 2.57945L16.6738 2.5795L16.6806 2.58339L18.4006 3.57339L18.4012 3.57373C18.8941 3.85658 19.2511 4.31626 19.407 4.87951C19.5537 5.44513 19.4788 6.01881 19.1963 6.51121L19.1954 6.51289C19.0303 6.80323 18.9112 7.1025 18.864 7.39221C18.8171 7.68003 18.8363 7.99597 18.9987 8.2729C19.3087 8.80176 19.9819 8.98004 20.62 8.98004C21.8039 8.98004 22.77 9.94618 22.77 11.13V12.89C22.77 14.0739 21.8039 15.04 20.62 15.04C19.9818 15.04 19.3087 15.2183 18.9987 15.7472C18.6851 16.2821 18.875 16.9616 19.1975 17.511C19.4824 18.0087 19.5608 18.5901 19.4084 19.1355L19.4084 19.1355L19.4062 19.1438C19.2605 19.7024 18.9066 20.161 18.4042 20.4446L18.4017 20.4461L16.6751 21.4341C16.3657 21.6044 16.0395 21.69 15.71 21.69C15.55 21.69 15.3823 21.6675 15.2042 21.6256C14.7097 21.4879 14.3 21.1782 14.0387 20.7428L13.9207 20.546C13.5899 19.9759 13.1081 19.535 12.495 19.535C11.8806 19.535 11.398 19.9778 11.0672 20.5497L10.9592 20.7362C10.9589 20.7367 10.9586 20.7372 10.9583 20.7377C10.6931 21.1869 10.2813 21.5004 9.79506 21.6259ZM14.3567 20.2895L14.3573 20.2906L14.4659 20.4781C14.4661 20.4786 14.4664 20.479 14.4667 20.4795C14.6561 20.8101 14.9704 21.043 15.3387 21.1351C15.6931 21.2237 16.0696 21.1839 16.3933 20.9911L18.1199 19.9931C18.4901 19.7795 18.7775 19.4226 18.8931 18.9889C19.0063 18.5644 18.951 18.1179 18.7331 17.7402L18.7322 17.7387C18.2242 16.8653 18.2069 16.0507 18.5341 15.4781C18.8586 14.9102 19.5688 14.52 20.59 14.52C21.5061 14.52 22.24 13.7862 22.24 12.87V11.11C22.24 10.2067 21.509 9.46004 20.59 9.46004C19.5688 9.46004 18.8586 9.06986 18.5341 8.50197C18.2069 7.9294 18.2242 7.11483 18.7322 6.24143L18.7331 6.2399C18.951 5.86223 19.0063 5.41565 18.8931 4.99121C18.7776 4.55819 18.5025 4.21601 18.142 3.99421L18.1353 3.99003L18.1283 3.98608L16.403 2.99874C15.7278 2.5948 14.8551 2.83623 14.4595 3.50568L14.4595 3.50567L14.4573 3.50952L14.3473 3.69952L14.3467 3.70056C13.8372 4.5854 13.1503 5.00004 12.49 5.00004C11.8308 5.00004 11.1449 4.58668 10.6357 3.70467L10.5281 3.50908L10.524 3.50162L10.5196 3.4943C10.1304 2.84037 9.26766 2.60931 8.59931 2.99743C8.5991 2.99755 8.5989 2.99767 8.59869 2.99779L6.87014 3.99695C6.87005 3.997 6.86995 3.99706 6.86986 3.99711C6.86983 3.99713 6.86981 3.99714 6.86978 3.99716C6.49973 4.21077 6.2125 4.56764 6.09688 5.00121C5.9837 5.42565 6.03902 5.87223 6.2569 6.24991L6.25779 6.25143C6.76579 7.12483 6.78306 7.9394 6.45588 8.51197C6.13137 9.07986 5.4212 9.47004 4.4 9.47004C3.48386 9.47004 2.75 10.2039 2.75 11.12V12.88C2.75 13.7833 3.48103 14.53 4.4 14.53C5.4212 14.53 6.13137 14.9202 6.45588 15.4881C6.78306 16.0607 6.76579 16.8753 6.25779 17.7487L6.25691 17.7502C6.03902 18.1279 5.9837 18.5744 6.09688 18.9989C6.21235 19.4319 6.48753 19.7741 6.84795 19.9959L6.85474 20L6.86166 20.004L8.58504 20.9902C8.91615 21.192 9.30356 21.2352 9.65373 21.1445C10.0345 21.0485 10.336 20.7987 10.5251 20.4932L10.529 20.4869L10.5327 20.4806L10.6422 20.2914C10.6423 20.2913 10.6424 20.2912 10.6424 20.291C11.1537 19.4123 11.8419 18.99 12.5 18.99C13.1603 18.99 13.8472 19.4047 14.3567 20.2895Z" fill="#292D32" stroke="#141414"/>
</svg>
