<svg width="25" height="24" viewBox="0 0 25 24" fill="none" xmlns="http://www.w3.org/2000/svg">
<path d="M10.7872 19.3375L10.7855 19.3364L7.86552 17.5064L7.86557 17.5064L7.85725 17.5014C7.58807 17.3399 7.27007 17.2401 6.94 17.2401H5.5C4.37908 17.2401 3.58544 16.9334 3.07105 16.4191C2.55667 15.9047 2.25 15.111 2.25 13.9901V9.99011C2.25 8.86918 2.55667 8.07554 3.07105 7.56116C3.58544 7.04678 4.37908 6.74011 5.5 6.74011H6.93C7.26007 6.74011 7.57806 6.64036 7.84725 6.47885L7.8473 6.47893L7.85552 6.47378L10.7745 4.64443C10.7747 4.64432 10.7748 4.6442 10.775 4.64409C12.1442 3.79088 13.3628 3.69653 14.2678 4.19755C15.1729 4.69854 15.74 5.77758 15.74 7.40011V16.5701C15.74 18.1808 15.1639 19.2722 14.2662 19.7736L14.2661 19.7735L14.2556 19.7796C13.9025 19.9883 13.4927 20.0901 13.05 20.0901C12.3766 20.0901 11.5981 19.8502 10.7872 19.3375ZM8.12156 17.0919L8.12448 17.0938L11.0445 18.9238L11.045 18.9241C12.0535 19.5544 13.1789 19.8331 14.0334 19.3568C14.8844 18.8825 15.25 17.7914 15.25 16.6001V7.41011C15.25 6.21416 14.8871 5.11707 14.0307 4.65184C13.179 4.17904 12.0569 4.44377 11.044 5.0867L8.11617 6.90538L8.11611 6.90528L8.10716 6.91111C7.76424 7.13441 7.35041 7.25011 6.93 7.25011H5.5C4.65353 7.25011 3.93049 7.42751 3.42895 7.92905C2.9274 8.43059 2.75 9.15364 2.75 10.0001V14.0001C2.75 14.8466 2.9274 15.5696 3.42895 16.0712C3.93049 16.5727 4.65353 16.7501 5.5 16.7501H6.93C7.35846 16.7501 7.76473 16.8649 8.12156 17.0919Z" fill="#292D32" stroke="#141414"/>
<path d="M18.2988 15.852L18.3 15.8503C20.0037 13.5824 20.0037 10.4176 18.3 8.14972L18.3 8.14972L18.2988 8.1481C18.2194 8.04321 18.2373 7.88564 18.3522 7.79857C18.4568 7.71932 18.6138 7.73694 18.701 7.85105C20.527 10.2933 20.5267 13.7084 18.7001 16.1503C18.6489 16.2184 18.5802 16.25 18.5003 16.25C18.4541 16.25 18.4062 16.2382 18.3471 16.1975C18.2368 16.1097 18.2206 15.9553 18.2988 15.852Z" fill="#292D32" stroke="#141414"/>
<path d="M20.1289 18.352L20.1304 18.35C22.9337 14.6123 22.9337 9.38781 20.1304 5.65003L20.1304 5.65002L20.1289 5.6481C20.0494 5.54321 20.0674 5.38564 20.1823 5.29857C20.287 5.21927 20.4441 5.23697 20.5313 5.35129C23.467 9.26338 23.4667 14.7381 20.5305 18.6499L20.5255 18.6565L20.5207 18.6633C20.4872 18.7111 20.4211 18.75 20.3304 18.75C20.2842 18.75 20.2362 18.7382 20.1772 18.6975C20.0668 18.6097 20.0506 18.4553 20.1289 18.352Z" fill="#292D32" stroke="#141414"/>
</svg>
