<svg width="142" height="48" viewBox="0 0 142 48" fill="none" xmlns="http://www.w3.org/2000/svg">
<path fill-rule="evenodd" clip-rule="evenodd" d="M33.5859 16.872C31.7061 14.9897 29.2059 13.9526 26.542 13.9517C21.0528 13.9517 16.5855 18.4185 16.5836 23.9092C16.5826 25.6644 17.0415 27.3776 17.9129 28.8874L16.5 34.0481L21.7791 32.6634C23.2335 33.457 24.8713 33.8748 26.5377 33.8753H26.542C32.0302 33.8753 36.4981 29.4079 36.5 23.9173C36.5009 21.2563 35.4662 18.7547 33.5859 16.8724V16.872ZM26.542 32.1935H26.5387C25.0537 32.1931 23.5969 31.7939 22.3258 31.0399L22.0236 30.8604L18.8908 31.6822L19.7269 28.6277L19.5301 28.3144C18.7017 26.9966 18.2638 25.4734 18.2648 23.9097C18.2667 19.3463 21.9796 15.6334 26.5454 15.6334C28.7561 15.6343 30.8342 16.4962 32.3969 18.0609C33.9598 19.6252 34.8197 21.7051 34.8188 23.9163C34.8168 28.4802 31.1039 32.1931 26.542 32.1931V32.1935ZM31.0819 25.9948C30.8332 25.8702 29.6099 25.2685 29.3816 25.1855C29.1534 25.1024 28.9877 25.0609 28.822 25.3101C28.6563 25.5594 28.1793 26.1199 28.0342 26.2856C27.889 26.4518 27.7438 26.4723 27.4951 26.3477C27.2463 26.223 26.4446 25.9604 25.4939 25.1129C24.7543 24.453 24.2548 23.6384 24.1097 23.3892C23.9646 23.1399 24.0944 23.0053 24.2186 22.8816C24.3303 22.7699 24.4673 22.5908 24.5919 22.4457C24.7166 22.3005 24.7577 22.1964 24.8407 22.0307C24.9238 21.8645 24.8823 21.7194 24.8202 21.5948C24.7581 21.4702 24.2606 20.2454 24.0529 19.7474C23.8509 19.2623 23.6456 19.3282 23.4933 19.32C23.3481 19.3129 23.1824 19.3114 23.0163 19.3114C22.8501 19.3114 22.5808 19.3735 22.3526 19.6228C22.1243 19.872 21.4816 20.4741 21.4816 21.6984C21.4816 22.9227 22.3731 24.1064 22.4977 24.2725C22.6223 24.4387 24.2524 26.9517 26.7483 28.0299C27.3418 28.2863 27.8054 28.4395 28.1669 28.5542C28.7628 28.7437 29.3052 28.717 29.734 28.653C30.212 28.5814 31.2061 28.0509 31.4133 27.4698C31.6206 26.8887 31.6206 26.3902 31.5585 26.2865C31.4964 26.1829 31.3303 26.1204 31.0815 25.9958L31.0819 25.9948Z" fill="#25D366"/>
<path d="M48.0568 30L44.8295 18.3636H46.6761L48.9432 27.375H49.0511L51.4091 18.3636H53.2386L55.5966 27.3807H55.7045L57.9659 18.3636H59.8182L56.5852 30H54.8182L52.3693 21.2841H52.2784L49.8295 30H48.0568ZM63.1415 24.8182V30H61.4427V18.3636H63.1188V22.6932H63.2268C63.4313 22.2235 63.7438 21.8504 64.1643 21.5739C64.5847 21.2973 65.134 21.1591 65.812 21.1591C66.4105 21.1591 66.9332 21.2822 67.3802 21.5284C67.8309 21.7746 68.1794 22.142 68.4256 22.6307C68.6756 23.1155 68.8006 23.7216 68.8006 24.4489V30H67.1018V24.6534C67.1018 24.0133 66.937 23.517 66.6074 23.1648C66.2779 22.8087 65.8196 22.6307 65.2324 22.6307C64.8309 22.6307 64.4711 22.7159 64.1529 22.8864C63.8385 23.0568 63.5904 23.3068 63.4086 23.6364C63.2305 23.9621 63.1415 24.3561 63.1415 24.8182ZM73.7674 30.1932C73.2144 30.1932 72.7144 30.0909 72.2674 29.8864C71.8205 29.678 71.4663 29.3769 71.2049 28.983C70.9474 28.589 70.8186 28.1061 70.8186 27.5341C70.8186 27.0417 70.9133 26.6364 71.1027 26.3182C71.2921 26 71.5477 25.7481 71.8697 25.5625C72.1917 25.3769 72.5515 25.2367 72.9493 25.142C73.347 25.0473 73.7523 24.9754 74.1652 24.9261C74.6879 24.8655 75.1121 24.8163 75.4379 24.7784C75.7637 24.7367 76.0004 24.6705 76.1481 24.5795C76.2959 24.4886 76.3697 24.3409 76.3697 24.1364V24.0966C76.3697 23.6004 76.2296 23.2159 75.9493 22.9432C75.6727 22.6705 75.2599 22.5341 74.7106 22.5341C74.1387 22.5341 73.6879 22.661 73.3584 22.9148C73.0326 23.1648 72.8072 23.4432 72.6822 23.75L71.0856 23.3864C71.275 22.8561 71.5515 22.428 71.9152 22.1023C72.2826 21.7727 72.7049 21.5341 73.1822 21.3864C73.6595 21.2348 74.1614 21.1591 74.6879 21.1591C75.0364 21.1591 75.4057 21.2008 75.7959 21.2841C76.1898 21.3636 76.5572 21.5114 76.8981 21.7273C77.2428 21.9432 77.525 22.2519 77.7447 22.6534C77.9644 23.0511 78.0743 23.5682 78.0743 24.2045V30H76.4152V28.8068H76.347C76.2371 29.0265 76.0724 29.2424 75.8527 29.4545C75.633 29.6667 75.3508 29.8428 75.0061 29.983C74.6614 30.1231 74.2485 30.1932 73.7674 30.1932ZM74.1368 28.8295C74.6065 28.8295 75.008 28.7367 75.3413 28.5511C75.6784 28.3655 75.9341 28.1231 76.1084 27.8239C76.2864 27.5208 76.3754 27.197 76.3754 26.8523V25.7273C76.3148 25.7879 76.1974 25.8447 76.0231 25.8977C75.8527 25.947 75.6576 25.9905 75.4379 26.0284C75.2182 26.0625 75.0042 26.0947 74.7959 26.125C74.5875 26.1515 74.4133 26.1742 74.2731 26.1932C73.9436 26.2348 73.6424 26.3049 73.3697 26.4034C73.1008 26.5019 72.8849 26.6439 72.722 26.8295C72.5629 27.0114 72.4834 27.2538 72.4834 27.5568C72.4834 27.9773 72.6387 28.2955 72.9493 28.5114C73.2599 28.7235 73.6557 28.8295 74.1368 28.8295ZM84.5709 21.2727V22.6364H79.8039V21.2727H84.5709ZM81.0823 19.1818H82.7811V27.4375C82.7811 27.767 82.8304 28.0152 82.9289 28.1818C83.0273 28.3447 83.1542 28.4564 83.3095 28.517C83.4686 28.5739 83.641 28.6023 83.8266 28.6023C83.963 28.6023 84.0823 28.5928 84.1845 28.5739C84.2868 28.5549 84.3664 28.5398 84.4232 28.5284L84.73 29.9318C84.6315 29.9697 84.4914 30.0076 84.3095 30.0455C84.1277 30.0871 83.9005 30.1098 83.6277 30.1136C83.1808 30.1212 82.7641 30.0417 82.3777 29.875C81.9914 29.7083 81.6789 29.4508 81.4402 29.1023C81.2016 28.7538 81.0823 28.3163 81.0823 27.7898V19.1818ZM93.0093 23.4034L91.4695 23.6761C91.4052 23.4792 91.3029 23.2917 91.1627 23.1136C91.0264 22.9356 90.8408 22.7898 90.6059 22.6761C90.3711 22.5625 90.0775 22.5057 89.7252 22.5057C89.2442 22.5057 88.8427 22.6136 88.5207 22.8295C88.1987 23.0417 88.0377 23.3163 88.0377 23.6534C88.0377 23.9451 88.1457 24.1799 88.3616 24.358C88.5775 24.536 88.926 24.6818 89.407 24.7955L90.7934 25.1136C91.5964 25.2992 92.1949 25.5852 92.5889 25.9716C92.9828 26.358 93.1798 26.8598 93.1798 27.4773C93.1798 28 93.0283 28.4659 92.7252 28.875C92.426 29.2803 92.0074 29.5985 91.4695 29.8295C90.9355 30.0606 90.3161 30.1761 89.6116 30.1761C88.6343 30.1761 87.837 29.9678 87.2195 29.5511C86.6021 29.1307 86.2233 28.5341 86.0832 27.7614L87.7252 27.5114C87.8275 27.9394 88.0377 28.2633 88.3559 28.483C88.6741 28.6989 89.0889 28.8068 89.6002 28.8068C90.157 28.8068 90.6021 28.6913 90.9355 28.4602C91.2688 28.2254 91.4355 27.9394 91.4355 27.6023C91.4355 27.3295 91.3332 27.1004 91.1286 26.9148C90.9279 26.7292 90.6192 26.589 90.2025 26.4943L88.7252 26.1705C87.9108 25.9848 87.3086 25.6894 86.9184 25.2841C86.532 24.8788 86.3389 24.3655 86.3389 23.7443C86.3389 23.2292 86.4828 22.7784 86.7707 22.392C87.0586 22.0057 87.4563 21.7045 87.9639 21.4886C88.4714 21.2689 89.0529 21.1591 89.7082 21.1591C90.6514 21.1591 91.3938 21.3636 91.9355 21.7727C92.4771 22.178 92.8351 22.7216 93.0093 23.4034ZM96.327 30H94.4634L98.6509 18.3636H100.679L104.867 30H103.003L99.7134 20.4773H99.6224L96.327 30ZM96.6395 25.4432H102.685V26.9205H96.6395V25.4432ZM106.571 33.2727V21.2727H108.23V22.6875H108.372C108.47 22.5057 108.612 22.2955 108.798 22.0568C108.984 21.8182 109.241 21.6098 109.571 21.4318C109.9 21.25 110.336 21.1591 110.878 21.1591C111.582 21.1591 112.211 21.3371 112.764 21.6932C113.317 22.0492 113.751 22.5625 114.065 23.233C114.383 23.9034 114.542 24.7102 114.542 25.6534C114.542 26.5966 114.385 27.4053 114.071 28.0795C113.756 28.75 113.325 29.267 112.775 29.6307C112.226 29.9905 111.599 30.1705 110.895 30.1705C110.364 30.1705 109.931 30.0814 109.594 29.9034C109.26 29.7254 108.999 29.517 108.809 29.2784C108.62 29.0398 108.474 28.8277 108.372 28.642H108.27V33.2727H106.571ZM108.236 25.6364C108.236 26.25 108.325 26.7879 108.503 27.25C108.681 27.7121 108.938 28.0739 109.275 28.3352C109.612 28.5928 110.025 28.7216 110.514 28.7216C111.022 28.7216 111.446 28.5871 111.787 28.3182C112.128 28.0455 112.385 27.6761 112.559 27.2102C112.737 26.7443 112.826 26.2197 112.826 25.6364C112.826 25.0606 112.739 24.5436 112.565 24.0852C112.395 23.6269 112.137 23.2652 111.792 23C111.451 22.7348 111.025 22.6023 110.514 22.6023C110.022 22.6023 109.605 22.7292 109.264 22.983C108.927 23.2367 108.671 23.5909 108.497 24.0455C108.323 24.5 108.236 25.0303 108.236 25.6364ZM116.606 33.2727V21.2727H118.265V22.6875H118.407C118.505 22.5057 118.647 22.2955 118.833 22.0568C119.019 21.8182 119.276 21.6098 119.606 21.4318C119.935 21.25 120.371 21.1591 120.913 21.1591C121.617 21.1591 122.246 21.3371 122.799 21.6932C123.352 22.0492 123.786 22.5625 124.1 23.233C124.418 23.9034 124.577 24.7102 124.577 25.6534C124.577 26.5966 124.42 27.4053 124.106 28.0795C123.791 28.75 123.36 29.267 122.81 29.6307C122.261 29.9905 121.634 30.1705 120.93 30.1705C120.399 30.1705 119.966 30.0814 119.629 29.9034C119.295 29.7254 119.034 29.517 118.844 29.2784C118.655 29.0398 118.509 28.8277 118.407 28.642H118.305V33.2727H116.606ZM118.271 25.6364C118.271 26.25 118.36 26.7879 118.538 27.25C118.716 27.7121 118.973 28.0739 119.31 28.3352C119.647 28.5928 120.06 28.7216 120.549 28.7216C121.057 28.7216 121.481 28.5871 121.822 28.3182C122.163 28.0455 122.42 27.6761 122.594 27.2102C122.772 26.7443 122.861 26.2197 122.861 25.6364C122.861 25.0606 122.774 24.5436 122.6 24.0852C122.43 23.6269 122.172 23.2652 121.827 23C121.486 22.7348 121.06 22.6023 120.549 22.6023C120.057 22.6023 119.64 22.7292 119.299 22.983C118.962 23.2367 118.706 23.5909 118.532 24.0455C118.358 24.5 118.271 25.0303 118.271 25.6364Z" fill="#08051E"/>
<rect x="1" y="0.5" width="140" height="47" rx="5.5" stroke="#0A0628"/>
</svg>
